<?xml version="1.0" encoding="UTF-8"?>
<svg id="canvas" xmlns="http://www.w3.org/2000/svg" version="1.1" viewBox="0 0 1024 1024">
  <!-- Generator: Adobe Illustrator 29.7.1, SVG Export Plug-In . SVG Version: 2.1.1 Build 8)  -->
  <defs>
    <style>
      .st0 {
        stroke: #000;
      }
    </style>
  </defs>
  <path class="st0" d="M1023.29,467.18c-.99-2.09-2.24-3.85-3.89-5.41,0,0-2.55-2.4-6.33-4.2-25.87-12.28-113.12.01-113.12.01-26.03,3.67-48.14,7.35-67.09,11-46.92,9.03-73.73,15.21-129.16,31.33-45.42,13.21-75.06,22.28-117.61,37.9-4.42,1.62-9.79,1.49-14.03-.36-25.97-11.3-49.18-20.91-80.88-35.78-46.92-22.12-73.65-33.03-113.09-56.3-39.44-23.33-58.61-35.45-84.13-60.18-25.44-24.73-34.72-37.39-43.14-63.45-8.51-26-7.99-39.7.77-66.66,8.85-26.91,19.68-42.24,43.4-67.88,23.72-25.7,41.85-39.21,75.19-60.42,33.26-21.21,54.66-31.03,91.26-45.63,36.52-14.61,56.55-20.06,91.69-27.45,35.15-7.33,55-7.15,84.13-9.33,29.13-2.18,41.08.55,61.36-1.58,20.19-2.06,31.54-3.21,39.96-8.85,8.42-5.58,10.14-12.73,2.15-19.27h0c-7.91-6.55-19.68-11.33-42.02-13.51-22.43-2.12-37.64-1.39-69.87,2.79s-53.8,7.51-91.44,18.12c-37.64,10.61-58.18,17.7-96.68,34.85-38.41,17.15-60.24,27.57-95.47,50.91-35.15,23.27-54.74,37.33-80.44,65.69-25.69,28.3-38.33,45.27-48.04,76.06-9.62,30.79-10.23,47.88-.26,77.82,9.97,29.94,21.91,44.85,50.1,71.94,28.27,27.09,49.41,39.39,90.92,63.45,41.59,24.06,69.09,34.67,116.79,56.85,20.27,9.43,37.05,16.72,53.15,23.65,9.15,3.94,8.87,13.39-.5,17.06-44.12,17.26-76.28,31.18-126.21,55.47-60.07,29.21-91.87,46.48-145.66,79.51-53.8,33.09-80.95,52.3-123.15,85.63-42.28,33.39-62.3,50.97-88.26,81.27-25.87,30.3-35.92,44.54-41.25,70.18-5.33,25.7-2.66,40.79,14.7,58.3,17.27,17.45,35.66,23.09,71.76,29.09,36.18,6.06,59.73,4.85,108.97.97,49.24-3.88,79.83-8.48,137.24-20.24,57.4-11.76,91.09-20.48,149.7-38.42,58.61-17.94,91.09-29.45,143.25-51.21,52.08-21.76,78.89-33.88,117.47-57.57,38.5-23.76,55.77-35.94,75.11-61.03,19.42-25.09,24.75-39.15,21.66-64.42-3.09-25.27-13.15-38.24-36.95-61.88-23.8-23.64-43.57-34.18-82.07-56.24-38.5-22.06-64.02-32.3-110.43-53.94-3.64-1.7-7.01-3.22-10.44-4.8,39.26-13.96,68.14-22.43,110.9-34.11,54.65-14.97,81.64-20.42,126.84-27.64,45.29-7.15,66.6-8.48,99.43-8.18,32.74.24,45.12,4.24,64.45,9.58,9.24,2.57,19.25-2.23,19.25-9.24,0,0,1.6-10.86,0-14.23ZM594.47,569.71c45.72,21.51,70.64,32.3,106.65,53.63,36.09,21.39,53.19,32.6,73.47,53.15,20.37,20.61,25.87,29.82,28.19,49.63,2.32,19.82-.26,28.48-16.67,49.45-16.33,21.03-29.99,33.03-65.05,55.63-35.06,22.54-60.59,35.51-110.43,57.27-49.76,21.7-81.72,33.64-138.7,51.39-56.98,17.76-90.4,26.42-146.09,37.39-55.77,10.91-86.62,14.67-132.6,17.27-45.98,2.67-68.58.79-97.28-4.12-28.7-4.85-35.32-8.73-46.23-20.24-10.91-11.51-12.98-17.45-8.25-37.27,4.73-19.88,9.54-33.51,31.88-61.94,22.26-28.42,40.13-47.03,79.58-80.24,39.44-33.21,65.57-52.85,117.56-85.88,51.99-33.09,83.19-50.36,142.22-79.33,59.04-28.97,92.98-43.03,152.79-65.51,1.48-.56,2.86-1.07,4.3-1.61,7.79,3.49,15.84,7.15,24.66,11.31Z"/>
</svg>