<?xml version="1.0" encoding="UTF-8"?>
<svg id="Layer_1" xmlns="http://www.w3.org/2000/svg" version="1.1" viewBox="0 0 1682.84 1855.6">
  <!-- Generator: Adobe Illustrator 29.7.1, SVG Export Plug-In . SVG Version: 2.1.1 Build 8)  -->
  <path d="M956.48,40.42c13.22,7.13,32.33,23.46,38.83,37.15,2.81,1.84,11.95-11.13,15.24-13.7,20.6-16.08,48.04-22.66,73.77-24.29,4.79-.3,8.87,2.26,13.73,1.95,11.93-.76,29.17-10.63,44.26-11.92,18.77-1.6,33.36,1.74,48.95,12-4.77,7.64-15.76.52-23.01,0-13.35-.98-24.74.66-37.41,4.55-2.89.89-10.45,2.7-11.56,5.4,13.85,3.86,28.49,5.07,42.41,8.6,77.03,19.5,151.45,26.41,185.94,110.06,6.76,16.39,3.43,29.45,6.4,39.43,9.25,31.08,51.64,60.79,70.1,88.08,22.99,33.99,12.9,45.22,19.28,80.72,2.87,15.99,11.61,32.37,14.88,49.12,1.14,5.84,5.35,33.02,4.03,36.03-.39.9-2.6,2.53-3.03,1.99-1.62-10.21-1.96-20.66-4.24-30.78-.72-3.19-2.86-11.53-5.76-13.21-.96,7.95-5.37,13.85-7.14,21.87-5.6,25.39-3.81,52.42-24.87,73.14-3.37,3.31-.52-4.16-3.99-3.01l-11.99,20.5c-8.42,8.24-20.5,18.37-32.02,18.5,2.19-4.17,20.36-24.14,17.97-27.01-6.23,2.4-10.38,8.12-16.66,10.5-3.21,1.22-9.36-.03-10.88,1.91-1.11,1.42-1.12,5.56-2.75,8.23-7.08,11.63-38.08,57.33-47.8,62.31-2.48,1.27-7.36.71-7.78,1.15-1.7,1.72-1.51,29.85-2.23,34.78s-4.11,10.93-5.37,16.63c-1.04,4.71.54,10.73-1.46,14.68-.68,1.33-12.41,2.19-12.96,1.74-1.3-1.06-5.17-28.26-6.15-32.93-.72-3.44,2.2-5.95-3.93-4.99-1.88,18.25,6.3,32.39,9.4,49.58,1.9,10.55,4.64,29,4.39,39.2-.38,15.57-12.49,36.44-11.78,53.2l6.01-2.96c-4.16,27.94-11.45,55.07-17.5,82.51-2.22,10.07-3.06,22.6-5.43,32.57-4.97,20.87-12.88,40.91-17.11,61.89.91.92,7.59-2.18,5.98,2.97-.61,1.94-8.58,16.57-10.33,19.68-22.45,39.66-42.27,71.31-63.26,112.74-8.85,17.46-20,27.09-30.41,41.59-5.91,8.24,1.33,3.03,1.73,3.27.44.26,1.46,4.2,3.17,5.83,8.63,8.27,16.86,16.2,24.14,25.92-.85-13.08,7.75-6.22,14.24-1.23,9.15,7.05,1.15,7.53,13.8,7.52,5.94,0,32.27,37.37,37.93,43.74,3.62,4.07,17.83,19,21.62,20.55,5.86,2.39,12.63-4.41,19.35-.55-1.85-9.5,5.39-5.57,12.48-3.47,25.68,7.61,56.76,28.1,83.58,38.44,31.64,12.21,63.57,19.19,95.06,28.94,8.47,2.62,52.16,21.26,54.92,27.09,1.38,4.14-3.24,2.52-3.72,3.15-2.66,3.47,6.8,7.05,10.14,9.94,12.84,11.13,24.52,24,37.01,35.59,15.16.95,2.92-11.75,11.58-19.67,1.65,2.97,5.8,4.1,7.61,5.91,6.51,6.53,26.5,37.09,32.22,46.22,20.3,32.42,42.09,79.13,54.72,115.28,6.85,19.59,15.67,44.2,10.43,64.55-2.91.63-3.24-.29-4.89-2.09-5.06-5.5-20.34-42.54-24.09-51.91-2.61-6.54-14.99-48.32-17.03-49.99-24,15.63-30.37-32.97-39.15-47.83-7.67-12.97-22.88-19.86-29.81-30.34-5.15-7.78,1.87-13.12-9.14-22.72-16.74-14.59-45.77-30.95-66.07-39.97-26.8-11.9-54.59-19.71-82.22-31.33-2.28-.96-4.17-6.94-12.58-3.8l1.01-4c-9.52,4.28-7.07-.89-9.53-1.87-5.35-2.14-13.17-2.09-16.49-3.43-10.18-4.12-23.5-14.54-35.52-16.37-12.3-1.87-24.81,8.46-22.81-16.02l-39.66-14.3c13.6,16.79,38.54,27.59,51.87,43.56,11.42,13.67,29.4,40.33,39.8,55.76,4.95,7.35,23.25,40.77,24.25,47.83,1.93,13.72-10.24,22.93-9.78,25.57,1.29,7.4,28.27,17.55,23.59,34.05-.85,2.98-9.93,3.2-12.24,2.73-34.69-7.09-40.46-35.72-64.54-57.44-7.93-7.15-33.29-26.73-42.45-27.67-3.22-.33-5.5,1.25-8.49,1.63,8.85,21.63,24.3,40.42,29.4,63.58,3.08,13.99,2.04,25.18.5,39.29-10.56,96.81-79.57,172.95-120.25,259.76-13.04,27.84-21.6,61.62-32.64,91.36-2.04,5.49-1.92,24.99-11.94,21.97-4.85-3.45-3.15-9.64-2.55-14.46,2.45-19.73,20.61-42.24,19.71-62.6-.17-3.79-4.08-2.77-4.03-3.78,2.69-50.81,70.13-144.58,94.83-193.1,11.75-23.07,16.93-40.42,25.17-64.49,5.07-14.8-.34-12.79-.26-26.47.15-26.89,10.16-30.31-1.57-60.46-6.32-16.23-30.46-50.99-25.48-66.73,2.3-7.26,10.16-8.73,12.05-11.96,2.53-4.3-.14-12.37,5.61-14.65,6.1-2.42,7.71,3.24,10.34,2.69,1.54-.32,3.64-5.8,6.39-7.72,13.57-9.46,29.66-7.88,44.72-4.3-7.71-9.78-23.17-30.26-34.65-34.5-14.74-5.45-52.48,21.78-61.34,33.53-14.08,18.66-18.3,55.47-43.99,65-1.03-9.88,5.82-16.92,7.96-26l-14.99,15.99c-.57-10.58,10.04-20.92,14.72-31.28,8.38-18.54,8.68-30.72,23.07-46.19,8.46-9.1,9.27-6.06,17.2-9.95,8.59-4.21,16.14-10.35,26.01-10.6-6.54-6.52-36.31-37.79-42.65-37.48-26.58,1.34-34.59,35.16-45.01,52.84-7.99,13.56-22.04,29.9-36.34,36.7,4.58,6.61,7.91,11.69,2.52,18.98,20.22,22.17,42.83,44.56,61.51,67.96,7.19,9.01,13.1,21.07,19.93,29.97,3.05,3.97,39.21,43.99,36.03,47.04-4.12,1.1-5.44-1.38-8.07-2.91-14.23-8.31-25.83-24.25-39.9-33.07l-25.99,113.04c1.55,8.49,6.97-10.8,9.94-9.05-3.83,23.36-13.76,48.15-22.49,70.49-14.44,36.97-31.79,74.34-49.29,109.13-6.12,12.16-13.94,45.11-16.32,7.31,14.04-60.47,42.32-117.37,61.52-176.52,13.41-41.3,20.67-83.97,34.18-125.1-.45-5.34-32.68-36.49-38.62-43.29l-40.95-48.02c-1.44,8.23,5.65,13.4,6.11,21.03.49,8-2.79,18.91-1.77,28.01.15,1.31,3.36.05,3.81,3.8,3.65,30.51-5.89,59.06-7.42,88.49-2.78,53.62-1.85,113.52-11,167.41-.71,4.19-2.19,14.75-4.72,17.35-3.44,3.54-7.51-.23-9.1.78-1.71,1.08-5.43,33.83-6.48,39.57-1.87,10.18-7.13,21.97-7.3,32.87-.23,14.74,8,33.13,8.01,47.69.01,9.76-4.49,33.02-6.72,43.44-.65,3.04-1.68,10.36-4.45,11.55-6.07-12.21-9.91-25.45-10.72-39.24-1.52-25.81,5.05-44.24,7.8-67.69,2.74-23.4.35-50.64,1.85-74.15,3.78-59.1,17.38-117.68,23.52-176.48,2.18-20.82.79-21.49-4.41-40.46-6.18-22.54-15.67-44.86-20.55-67.45-2.97-13.76-3.05-30.52-6.5-44.51-4.02.64.15,6.18-5.96,1.97-2.49,17.83-3.68,38.36-12.06,53.99-7.32-3.49-2.61-14.21-3.99-20.59-.36-1.65-3.66-1.49-4.61-3.79-1.33-3.23.16-9.43-3.34-9.58-9.26,31.79-15.19,64.6-14.05,97.97-2.98.36-2.96-5.37-3.37-7.58-.7-3.78-.61-16.27-1.02-17.22-1.64-3.81-5.84-2.19-7.16-3.62-5.92-6.41,2.39-45.52,5.05-55.1,3.63-13.1,10.11-29.99,14.97-43.03,3.48-9.35,13.6-26.88,15.57-34.49.3-1.15-3.99-.72-4.11-2.07-.82-9.29,15.56-65.82,19.56-78.42,7.07-22.26,16.35-43.5,26.52-64.46-7.7-.77-15.08,4.21-21.03,6-1.13.34-.8-3.16-1.38-3.5-3.4-2.02-66.64,17.02-76.58,18.46-7.53-.16-3.14-3.93-4.01-5-3.83-4.67-24.26.48-32.06.1-11.18-.54-25.08-6.03-36.03-6.14-18.65-.19-34.03.65-53.38-2.45-15.8-2.53-24.51-14.03-38.44-19.56-9.7-3.85-22.86-5.86-33.07-9.9l70.01,47.48,1.97,6.49c-2.88,2.64-24.87-5.71-29.38-7.58s-11.14-6.94-14-8.37c-5.59-2.8-12.69-5.95-18.61-8.02,4.91,6.15,12.88,11.04,19.37,15.61,15.47,10.92,59.41,33.67,68.75,45.24,2.15,2.67,3.82,8.51-1.05,7.07-9.8-2.9-26.14-9.84-35.78-14.23-67.69-30.8-126.45-94.14-186.36-137.63-6.44-8.83-2.69-15.15-3.17-15.85-.36-.53-4.16-1.14-5.9-3.13-1.32-1.5-.39-4.33-1.8-6.09-9.52-11.98-26.16-8.88-28.06-28.99,5.32.1,11.56.47,15.99-3.01-11.3-8.5-18.08-16.16-25.94-27.54-2.25-3.26-8.27-3.2-6.06-11.47-1.84-2.09-5.71,7.73-14.02-1.54-14.58-16.26-26.83-59.52-35.99-80.45-3.42-.51-2.14,4.77-1.96,6.95.6,7.19,1.22,14.85,2,22.02,3.5,32.43,15.1,64.3,11.97,97.03l-3.97-2.03c6.02,15.6-3.54,33.25.89,48.1,1.03,3.45,21.76,35.23,25.11,38.89,38.65,42.28,68.5,76.03,104.04,121.96,15.94,20.61,35.45,38.88,47.93,62.07-3.43,4.06-4.85-2.9-6.65-4.31-10.53-8.27-21.83-18.05-31.43-27.61-12.19-12.12-23.27-27.83-36.92-39.08l-.97,2.96c15.32,22.39,33.36,42.86,49.6,64.41,8.78,11.65,16.27,27.11,25.5,38.55s24.96,22.71,33.9,34.05c1.58,2.01,3.87,2.57,2.96,6.02l-9.98-3.98,1.01,5.97c-5.42-6.99-11.81-5.95-18.95-8.98l-35.09-42.99-.95,5.96c-22.96,5.95-49.79,23.79-66.07,40.97-10.84,11.44-17.92,26.03-28.01,37.99-22.06,26.15-79.91,63.49-112.42,73.7-1.99.62-3.68,0-5.5-.65l16,72.01c2.41,2.16,34.38-25.99,39.35-29.63,25.3-18.51,56.41-36.05,80.46-55.54,28.25-22.88,46.98-51.61,81.1-70.9,13.98-7.91,31.58-8.41,47.05-5.94,1.7-8.69-2.98-11.44,8.04-10.01l.95-3.97c1.99,1.21,12.99,12.4,13.08,13.33.21,2.35-1.99,5.08-1.59,7.41,2,11.64,46.81,31.72,58.26,39.54,3.01,2.06,11.97,8.2,13.84,9.7,16.98,13.53,16.59,48.69,24.76,67.62.89,2.06,2.63,2.56,4.66,2.42v1.95c-5.88-1.27-2.25,4.84-2.96,9.85-.39,2.79-2.79,4.95-2.92,7.23-.16,2.83,2.29,29.49,2.94,30.91,2.14,4.69,11.69,9.73,14.98,13.59,8.9,10.44,14.66,26.39,22.12,35.3,23.97,28.62,59.19,50.64,79.48,84.52,10.24,17.1,37.43,84.04,37.96,102.25.16,5.44-3.03,9.96-8.27,6.15-4.69-3.41-21.17-47.89-26.22-57.86-29.78-58.85-64.41-74.06-100.14-119.86-7.65-9.81-12.09-23.64-21.02-32.98-12.97-13.57-17.02-6.73-21.34-30.66-1.23-6.8-.14-13.44-1.05-18.78-4.06-23.7-10.51-46.94-9.98-71.22-20.3-17.25-44.99-30.37-64.62-48.36-4.2-3.85-14.84-15.01-16.81-19.67-1.63-3.84.1-10.93-3.17-12.36l-6.42,11.52c-9.11,22.38,20,5.72,18.84,21.1-.92,12.25-14.8,11.81-16.98,15.76-1.77,3.21,1.42,8.9-2.35,12.67-2.42,2.42-9.29,2.96-12.87,5.21-4.83,3.04-9.71,10.54-17.42,14.49-12.41,6.35-7.83,1.09-9.79-.73-1.15-1.07-5.27-.56-3.95,2.93,1.25,3.3,24.13,35.27,27.97,40.04,4.11,5.1,11.49,12.95,16.21,17.79,5.25,5.39,47.96,39.37,43.77,45.2l-5.45-.74c-34.21-28.1-61.97-53.49-84.65-92.21-2.88-4.92-.24-10.39-9.42-5.74-2.8,1.42-3.01,4.8-4.47,5.58-15.39,8.22-25.46,12.82-41.36,22.73-5.75,3.59-32.72,16.15-32.71,21.3,0,3.04,14.76,21.37,17.73,26.41,31.1,52.62,64.9,98.46,89.84,154.16,6.53,14.58,12.74,29.59,18.53,44.48,3.76.41,1.61-4.19,1.4-6.39-.5-5.04-6.47-30.39-5.41-31.59,1.69-1.91,4.43,1.51,5.56,3.42,4.54,7.75,12.16,30.99,15.34,40.66,4.63,14.11,13.88,32.42,3.11,45.05-3.24,3.81-5.67.18-7.52,1.36-.65.41-.5,3.5-1.4,3.44-1.72-.11-16.34-6.24-18.17-7.89-2.66-2.4-7.09-10.95-9.27-14.73-20.69-35.74-28.9-79.46-48.35-113.56-27.57-43.7-55.12-87.16-79.27-132.92-3.95-2.57-5.99,3.22-9.32,4.86l-38.7,18.27,17.98-27-4.6-.61-51.48,36.52-31.89,11.09c-3.35-4.83,17.6-16.46,18.88-19.88,2.22-5.93-5.04-18.73-6.95-25.07-2.71-9.02-15.93-59.69-19.97-62.03-3.05-1.77-7.47-.3-11.15-2.85-7.9-5.49-18.1-66.45-21.76-80.24-6.94-26.11-16.62-60.02-27.61-84.39-7.68-17.02-21.57-32.05-23.48-51.54-1.24-1.13-28.35,13.88-29.92,15.07-5.61,4.24,2.85,2.26,1.93,3.92-21.77,21.74-48.05,37.72-73.95,54.01,4.83,3.62,9.97,5.14,14.91,9.05,35.62,28.24,102.12,131.93,127.9,174.1,24.62,40.29,18.53,77.86,51.2,116.8,11.08,13.2,28.91,25.57,36.77,41.23,6.27,12.5,8.25,38.7,14.17,47.83.62.95,2.55,2.59,3,1.98l-.05-31.07,4.05-26.91c1.61,19.17,7.62,38.15,9.77,57.24.89,7.93,3.38,36.11-.03,41.47-2.44,3.82-6.17,2.52-7.31,3.78-1.21,1.33.01,4.96-.43,5.44-.85.92-13.07-2.39-15.37-3.53-16.65-8.24-25.6-59.76-32.5-77.5-11.95-30.7-42.67-46.79-56.44-79.56-8.35-19.87-9.59-40.92-16.08-59.92-10.75-31.44-59.26-99.51-79.93-130.07-16.48-24.38-36.33-47.09-52.47-71.52-1.79-2.7-2.65-6.63-3.18-9.84-4.05-3.23-6.39,18.22-9.96,17.99l5.96-23.99c-23.64,12.64-50.53,18.84-71.94,35,32.04,21.25,53.8,55.38,74.74,87.22,27.46,41.76,71.22,109.71,89.27,154.72,2.77,6.91,5.99,25.7-6.04,20.08-12.22-5.71-27.33-37.88-36.3-49.72-1.41-1.85-4.04-6.29-3.67-.34,15.04,27.74,28.32,56.64,40.06,85.94,1.25,3.12,2.68,5.35,1.89,9.09l-33.45-65.53c-9.7-28.95-29.67-52.85-44.86-79.14-22.4-38.76-49.46-96.78-78.64-129.36-4.14-4.62-16.99-15.86-22.24-17.79-6.38-2.34-2.75,13.96-2.8,15.81-7.16-.92-.81-15.64-6.93-13.96-3.15.87-38.18,21.03-42.05,23.96-18.27,13.82-65.28,77.77-80.44,81.73-3.42.89-6.49-1.42-9.32-1.18-9.33.81-17.1,28.05-21.22,23.44-1.63-1.82,4.2-12.78,5.18-15.99,6.79-22.33,32.15-57.38,48.86-76.96,18.63-21.84,46.04-41.36,67.95-60.05l-21.99,4.99c-.41-.35,4.98-7.93,6.01-8.97,11.97-12,36.64-27.64,51.32-38.68,3.08-2.31,14.18-7.67,14.66-8.37.69-1-2.19-3.01-3.05-3.98-29.33,15.02-57.85,31.45-86.92,47.04-30.77,16.51-60.69,30.14-90.29,49.71-7.85,5.19-20.53,20.33-30.65,19.31-9.13-.92-6.9-7.74-3.06-13.05,11.96-16.52,52.88-40.37,70.97-53.08,32.42-22.78,65.51-47.04,101.51-64.51,28.14-13.66,60.3-22.33,87.59-36.33,26.6-13.64,65.94-47.36,91.4-54.6,5.35-1.52,15.22.3,19.54-4.46,5.45-5.99-7.56-2.09-5.01-7,1.89-3.65,9.95-3.19,12.91-7.1,3.39-4.47,4.74-19.59,8.65-27.35,11.39-22.57,36.96-48.64,47.28-72.72,3.55-8.28,2.7-20.47,6.71-29.29,2.13-4.68,8.09-11,11.12-16.88,6.47-12.51,22.46-50.99,29.26-58.73,9.97-11.34,13.02-2.24,18.49-3.27,3.61-.68,13.64-7.41,19.09-9.16,7.59-2.43,16.48-3.6,24.41-4.59,1.29-1.36-5.08-29.06-6.97-31.93-3.64-5.53-1.55,2.19-5.86,2.17-10.85-.05-7.67-5.42-11.98-10.28-12.28-13.84-33.76-28.68-42.85-43.2-3.95-6.31-7.84-18-3.25-24.69s8.79,8.24,14.96.99c-8.37-7.66-19.79-12.37-28.04-19.96-16.71-15.4-18.55-29.37-27.4-48.52-18.65-40.37-49.43-86.43-43.95-132.95.86-7.32,6.12-16.63,4.61-23.72-.69-3.23-4.58-3.87-6.37-7.64-16-33.67-15.63-72.6-27.27-102.8-3.44-8.92-14.64-20.12-19.86-30.14-19.1-36.66-22.18-62.93-5.59-101.74,5.79-13.54,28.84-43.54,31.55-57.01,1.26-6.25-2.4-21.33-1.73-29.39,2.69-32.61,24.49-77.53,51.35-96.82,5.44-3.91,8.4-2.08,11.69-4.14,6.52-4.08,12.66-15.21,18.01-20.17,18-16.68,49.82-37.5,72.23-47.77,12.91-5.92,36.13-10.98,45.71-18.31,10.56-8.08,20.63-23.41,29.05-33.91l-15.44,7.26c-5.62,5.26-13.3,12.62-19.58,16.71-2.62,1.71-5.07,1.43-4.94-.99.27-5.2,35.1-34.51,41.31-38.65,27.51-18.34,55.23-22.3,86.57-33.43,28.08-9.98,55.05-27.68,86.07-30.94-.02-3.63-8.6-2.13-10.97-1.96-38.29,2.83-71.33,11.66-104,32-2.24-1.13,3.06-5.28,3.93-6.07,44.17-39.94,120.51-44.36,175.89-29.79,12.89,3.39,26.71,11.15,38.44,13.67,8.65,1.86,15.42-.67,23.69.19,18.53,1.92,43.81,9.94,60.23,18.81l-.02.12ZM849.26,27.62c-25.95-8.52-47.29-8.82-73.68-2.72l-38.3,12.67c12.99.26,26.06-.24,39.07-.06,24.77.34,33.88-3,57.67-6.16l15.23-3.73h.01ZM903.27,61.57c-24.05-20.38-61.87-22.23-91.99-17.96l50.28,14.7c14.7-1.26,27.66-1.79,41.71,3.25h0ZM817.26,61.62c-3.55-3.51-37.06-6.49-43.98-6.01l41.45,9.56c3.42,1.97,3.15-2.95,2.54-3.55h-.01ZM939.27,63.57c-2.37-4.81-6.18-8.59-9.99-2.97l9.99,2.97ZM1069.26,57.61c-15.55-.25-58.88,17.99-59.77,34.94-.87,16.62,14.39-4.4,22.29-5.01l14.53-13.91,22.95-16.02ZM1163.26,71.61l-60.98-13.15-22.99,9.16c-.48,3.48,4.55,1.88,6.96,1.97,21.19.79,41.19-.11,62.03,5.98l14.98-3.96h0ZM873.25,77.61c-14.88-7.89-31.73-8.76-47.97-12.01-1.09,5.31,1.32,3.45,3.93,4.97,21.43,12.49,35.3,24.35,59.44,7.48,1.29-.9,5.79-1.26,2.62-4.44-1.1-1.09-23.19-5.97-18.02,4ZM839.26,83.61c-16.96-4.58-33.77-9.31-51.27-11.74-43.72-6.07-56.4-4.07-94.76,16.67l-29.95,19.02c24.39-7.99,47.6-11.18,73.01-13.96,20.91-2.29,35.39-6.19,54.8-8.85,13.1-1.79,27.33,1.41,41.2.83,2.43-.1,7.44,1.51,6.97-1.98h0ZM628.74,121.05c1.37-.86,2.46-5.44,5.47-7.52,10.95-7.54,23.42-16.8,34.44-23.57,2.43-1.49,33.33-13.66,28.6-18.38-32.76,7.46-65.14,24.54-83.97,53.01,2.79.3,13.99-2.63,15.46-3.55h0ZM1259.27,193.59c1.33.03,4.08.74,3.97-.97l-5.96-21.02c8.23,5.52,7.86-1.75,9.2-1.94,8.84-1.24,16.78,3.31,24.78,5.92-5.61-40.29-39.44-73.49-79.98-78l7.99-9.97c-15.74-.12-30.12-8.06-45.99-6l38.49,18.04c10.51,11.99,39.54,25.21,42.57,41.8.13.71-2.56,13.65-3.08,14.15-4,3.92-7.84-2.31-4-8.02l-3.94,2.04c-.93-9.43-8.62-18.69-17.08-22-4.94-1.94-1.75,5.07-3.52,7.57-.59.83-3.22.24-3.4.47-.49.61,10,11.28.02,12.99-6.69,1.14-28.79-11.17-39.07-9.21l-26.98,6.14c20.02,2.91,35.56,23.14,52.62,30.4,17.14,7.29,37.43,8.8,53.37,17.63-3.16-.07-11.23-4.11-11.98-.03l25.98,12.01c-2.92-5.73-8.66-9.02-14-11.98v-.02ZM873.28,95.6c-1.08-1.2-27.88-4.22-32-3.02,13.35,9.3,23.46,19.31,25.85,36.18,4.83,3.56,17.37-5.43,24.13-3.19-2.92-4.8-11.52-6.78-15.3-10.67-8.31-8.52-1.45-17.93-2.68-19.3ZM908.55,104.35c-5.96-3.6-30.59-8.32-24.33,3.29.64,1.19,19.87,15.55,21.65,16.38,5.01,2.33,13.94.01,19.39,3.57,2.48-3.36-13.28-21.17-16.7-23.24h-.01ZM1165.26,105.61c-35.5-9.94-72.95-4.46-93.99,27.96l93.99-27.96ZM1005.26,109.58c.62-2.76-1.08-5.32-3.97-5.99v5.99h3.97ZM1071.25,109.55c.2-.23.73-4.21-.97-3.94-23.21,11.1-41.63,29.28-38.99,56.96.32,3.32,4.55,19.69,6,21.01,4.04,3.67,6.59-10.32,9.93-10.99-3.26-4.3-10.23-1.95-13.04-7.06-6.2-11.28,14.92-39.11,22.99-47.03,3.8-3.73,13.53-8.31,14.08-8.95ZM1213.25,133.59c3.39-3.52-15.14-15.92-18.09-16.89-20.43-6.67-72.79,13.27-91.92,23.86-2.94,1.62-8.84,3.95-9.96,7.01,37.54-13.64,81.03-34.21,119.97-13.98h0ZM756.09,174.41c11.7-7.91,51.69-24.77,66.63-30.37,6.18-2.32,19.12-3.41,22.61-5.4,5.91-3.37-8.76-13.4-11.38-14.73-49.93-25.48-136.15,32.98-162.33,75.03-2.19,3.51-7.16,11.52-5.36,14.64,8.02-5.07,22.92-27.66,30.44-29.75,5.46-1.52,11.41,8.22,11.68,12.71s-7.36,20.52-10.22,24.92c-24.89,38.36-118.34,99.03-163.98,100.17-8.15.2-12.72-3.32-19.88-4.07s-14,1.73-20.99.04c1.75,9.16-4.69,4.67-11.54,7.48-6.58,2.7-10.67,13.45-18.48,14.53.08,3.36,4.17,1.07,5.13,5.81,3.06,15.18-15.06,24.63-17.13,38.16,27.8-12.57,55.79-35.05,88-27.98,2.12,8.63-7.2,6.66-14.33,10.68-9.01,5.07-17.1,16.49-23.67,24.33-.31,1.51,1.93,1.28,2.95.96,22.12-7.02,63.51-29.15,85.13-40.88,51.71-28.05,81.89-52.46,112.79-103.21,8.51-13.97,21.77-48.24,30.19-57.98.43-.49,9.88-3.6,11.12-4.48,4.37-3.07,9.11-8.23,12.63-10.61h-.01ZM693.27,129.61c-3.58-3.16-49.16,25.28-55,29.98-15.01,12.06-29.12,35.68-43.9,50.1-31.03,30.25-64.63,53.52-104.7,69.39-3.05,1.21-5.41-1.16-4.38,4.51,8.29-2.22,15.37-1.11,24.36-2.63,13.72-2.32,30.7-7.54,44.04-11.96,11.54-3.82,60.75-22.3,67.48-28.52,5.68-5.25,15.62-36.2,20.39-45.61,5.79-11.43,14.51-25.55,22.69-35.31,2.29-2.73,30.9-28.3,29.02-29.96h0ZM1326.12,162.74c-3.82-5.13-7.49-11.6-12.83-15.15l10.07,24.39,23.91,25.59c-6.18-12.23-13.21-24.17-21.14-34.83h-.01ZM477.27,199.57c18.08-7.74,40.52-16.75,55.05-29.93,1.9-1.72,13.08-11.92,10.93-14.05-11.5,3.77-20.5,12.77-29.95,18.71-1.45.91-4.67.2-7.83,2.31-9.95,6.64-19.33,14.97-28.2,22.96h0ZM935.27,177.57c-15.91-15.79-43.05-18.73-64.45-15.42-18.98,2.94-49.26,9.9-62.63,23.36-1.4,1.41-12.23,14.87-10.91,16.07,6.34,1.32,9.92-4.96,15.08-5.9,6.13-1.12,13.06,1.01,19.43-.56,4.37-1.08,11.92-7.3,13.97-8.12,11.36-4.51,32.69-9.9,44.52-8.73,4.76.47,8.4,4.98,13.69,4.74,8.04-.37,20.49-9.27,31.31-5.45h-.01ZM1165.27,165.57c-1.16-4.02-6.6-4.45-10.03-5.09-14.96-2.78-32.68-.13-41.96,13.1,5.76-2.48,12.84-2.49,18.51-4.11,1.68-.48,1.44-3.49,2.87-3.82,2.46-.57,16.44-1.75,19.76-1.85.68-.02,1.09,7.25,10.85,1.78h0ZM963.27,179.57c-.6-2.63-5.91-7.58-8-5.96,2.1,5.04,1.74,7.16,8,5.96ZM1069.27,177.61c-2.87-2.81-18.74,13.92-13.98,19.98l13.98-19.98ZM1318.57,254.29c-25.93-26.47-86.61-67.68-122.39-76.64-2.02-.51-4.77.11-1.87,1.92,7.79.91,5.55,12.83,8.88,15.11,2.05,1.4,6.78.59,9.94,2.06,12.95,6,29.12,19.04,25.28,34.99-.79,3.3-8.03,17.31-11.13,13.85-3.56-48.86-62.15-17.61-88.01-5.97.35,2.71,2.72,3.49,5.08,3.89,26.66,4.5,47.13-3.08,75.93,8.07,41.09,15.91,60.32,45.17,82.23,79.86,3.85,6.1,15.36,8.64,16.77,16.14,3.24.56,2-2.53,1.54-4.52-6.31-27.7-28.56-44.46-38.05-65.98-.64-1.46-5.09-15.95-5.14-16.82-.09-1.65,4.01-8.8,4.76-8.79,2.49.04,5.38,3.07,8.36,3.66,2.51.5,5.1-1.12,7.95-.05,9.19,3.47,16.31,17.21,22.72,21.35,4.52,2.92,14.66,3.22,19.81,9.17,2.03-2.44-19.41-27.96-22.68-31.3h.02ZM749.24,197.57l6.01-11.98c-3.11.91-12.14,9.61-6.01,11.98ZM787.27,189.61l-21.61,12.43-.41,5.54-2.97-3.98c-10.8,7.81-10.16,20.22-12.99,31.99l5.97.98c-5.45,6.67-11.97,8.28-15.34,16.62-4.75,11.75-4.37,25.53-10.76,36.92-2.18,3.88-5.97-2.13.14,9.49,2.73-.22,3.18-2.92,4.07-4.9,6.37-14.07,9.34-28.11,17.56-42.44,7.42-12.94,21.01-26.12,27.15-38.85,3.66-7.59,3.95-16.7,9.19-23.79h0ZM891.27,191.61c-29.1,2.75-59.73,20.39-79.03,41.95-21.92,24.49-35.82,61.78-40.95,94.03,11.51-15.98,17.69-35.6,28.37-52.61,11.35-18.07,26.33-33.61,42.61-47.35,7.66,6.9.55,7.21-.93,9.44-12.53,18.92-32.04,43.87-37.7,65.92-.96,3.76.71,7.52,3.6,4.6.47-.48,2.46-9.68,4.32-12.71,7.77-12.66,31.1-41.37,41.65-52.34s22.84-11.54,20.04-28.94c-1.22-1.44-18.95,8.06-15.97,1.02,3.97-9.39,20.97-6.06,25.05-8.87s5.71-10.05,8.93-14.13h.01ZM1048.69,202.13c-1.35-1.23-7.19-2.24-9.4-4.54l6,30c7.14-2.41,7.21-21.97,3.4-25.46ZM965.25,213.59c.98-12.74-17.28-11.46-25.97-13.98l25.97,13.98ZM913.26,203.62c-5.74-2.57-17.28-2.53-17.97,5.96,5.04-.94,15.05-1.28,17.97-5.96ZM989.27,231.57l-13.98-17.98c-2.87,9.39,6,14.78,13.98,17.98ZM1099.27,227.61c-3.95-.84-21.17,10.88-17.99,13.97,2.62,2.54,15.99-11.61,17.99-13.97ZM1013.26,251.58c-1.41-8.75-.47-19.73-11.98-19.98,0,2.62,7.98,24.41,11.98,19.98ZM919.26,247.58c4.48-12.68-12.19-9.77-15.98-5.97-5.27,5.28,14.82,4.94,15.98,5.97ZM1069.26,251.61c-8.22-2.16-14.23.58-21.98-4,1.26,2.96.98,5.93.18,8.97-3.19,12.18-5.13,14.17-18.18,15.03l5.99,11.95-7.98,3.02c1.34,5.12,18.96-2.57,19.63-3.36,1.02-1.2,2.33-14.69,7.54-17.46l14.81-14.15h-.01ZM453.26,249.61c-8.43,1.74-15.84-1.84-19.96,7.94l6.82,3.94,13.14-11.88h0ZM379.29,323.59c12.85-10.1,9.95-25.56,12.45-38.53,1.28-6.63,6.59-12.15,5.51-19.47-13.01,15.74-13.9,38.42-17.96,58h0ZM1190.84,274.05c-11.37-6.58-8.16,8.8,4.43,7.52-1.1-1.52-3.78-7.15-4.43-7.52ZM481.26,281.61c-4.22-.49-13.5-3.38-15.97,1.95,4.2,1.58,13.38,3.11,15.97-1.95ZM1107.27,283.61c-9.05-2.74-8.91,2.49-11.39,3.97s-6.88.88-6.6,3.99c5.67-.6,14.69-2.95,17.99-7.96h0ZM1417.25,317.59c2.58-3.2-18.06-25.12-21.96-28,4.13,15.72,4.13,35.11,19.96,44l-5.98-19.98,7.98,3.98ZM771.27,509.59c28.47-4.13,66.7,3.03,94.97,8.07,8.51-1.22-5.35-2.24-.96-6.06s22.79,5.84,27.02,10l1.96-4.01,10.02,9.98-1.02-7.98c2.21.83,7.34-2.11,7.77-1.81,4.74,3.27,13.74,26.51,19.25,31.79l-3-23.98c13.87-2.41,20.54,40.02,12.99,39.95-2.33-.02-5.18-8.36-5.99-7.95-3.6,6.54-8.79,1.5-12.96,3-6.48,2.34-8.7,9.68-17.47,5.41-7.61-3.7-12.57-14.4-12.59,1.56-11.64-.71-23.08-3.84-34.42-6.55-24.65-5.89-58.27-15.51-82.7-19.31-20.88-3.24-24.8,3.28-41.24,8.51-13.6,4.33-29.68,6.81-42.75,13.25-8.98,4.43-16.44,14.96-28.89,14.09.89-5.4,10.78-5.97,11.99-8.99.78-1.93-4.82-.06-3.99-1.98.77-1.76,9.57-3.55,5.97-7.01-.8-.77-17.03,9.44-19.96,10,1.94-5.74,1.97-7.37-2.01-11.97,4.45-1.29,9.89-2.91,13.81-5.29,2.16-1.31,21.85-15.51,22.88-16.61,1.82-1.94.84-5.02,1.64-5.71,1.77-1.54,6.3,1.41,5.65-2.38-14.11,1.84-24.35,3.31-38.44-.57-1.79-.49-12.69-5.21-13.17-5.75-.34-.38.79-2.58.41-3.83-.56-1.82-3.18-5.47-2.79-5.85,3.03-2.95,4.1,3.37,6.7,4.34,13.68,5.12,30.1-.36,43.29-4.38-2.8-6.51-12.85-1.23-18.99-1.1-2.35.05-12.52.1-12.99-2.85,12.31-4.2,31.12-2.33,39.98-12.01-7.77,1.14-9.45,5.39-12-3.99,32.3-5.44,48.16-29.18,59.53-57.5,4.44-11.05,9.58-24.56,9.48-36.52-12.07,10.78-18.77,25.96-29.03,38.41-38.86,47.18-66.39,55.07-115.84,82.73-6.06,3.39-10.12,12.1-15.05,16.95-2.98,2.93-14.45,9.43-14.9,10.21-.36.64,2.08,10.37,1.83,14.61-1.5,25.53-8.75,52.91-12.08,78.01-1.69,12.77,3.85,13.14,3.82,13.94-1.21,28.16-6.65,52.44-3.92,80.3.48,4.94,3.1,25.99,1.7,28.4-3.49,6.01-12.39,2.32-16.11,2.81-4.34.57-15.65,10.11-19.27,7.48-10.07-13.04-3.61-27.06-6.58-40.44-1.48-6.65-8.01-9.98-9.42-13-6.62-14.21-7.75-28.69-8.3-43.26-.49-12.83-21.08-18.05-31.59-24.43-7.43-4.51-28.29-20.44-35.27-20.92-8.81-.6-6.86,3.28-11.26,7.01-1.26,1.07-4.25.71-5.23,1.66-2.99,2.9-.04,9.26-.47,9.47-2.08,1-8.57-1.56-9.76,3.32-.65,12.91-4.89,25.03-6.01,37.84-2.48,28.27-1.53,44.61,11.82,69.38,6.07,11.27,32.94,66.14,37.96,70.47,2.07,1.79,8.2,2.35,11.75,4.24,11.77,6.27,36.26,25.37,46.36,27.72,15.7,3.66,6.89-14.2,12.88-16.91,4.13-1.87,4.77,10.33,10.6,7.56.38-.18,1.14-5.59,6.36-3.6l-7.99-47.96c2.36.33,4.66-1.5,5.97,1.36,3.11,6.79,3.47,22.68,6.05,30.6,3.77.4,1.61-4.19,1.41-6.4-.67-7.16-2.52-14.2-1.42-21.57,11.78,2.78,6.38,22.48,10.5,32.48s4.8,9.77,8.38,21.62c4.38,14.54,10.23,28.91,14.54,43.46,6.92,23.36,8.11,45.38,21.7,66.3,13.41,20.64,32.56,38.84,48.94,57.06l91.91,47.09-15.98,2.97,17.31,14.69c41.96,14.47,83.51,42.79,124.72,57.28,33.12,11.65,81.43,8.95,117.05,7.12,18.2-.94,37.6-2.23,55.68-4.34,5.38-.63,11.41-3.89,16.38-3.91,4-.02,1.7,4.4,5.56,4.17,16.05-.94,37.6-21.51,49.32-32.98,10.54-10.31,16.87-20.65,25.97-32.03-5.8-1.88-4.48-3.6-3.01-9,2.9-10.7,23.15-56.25,29.34-64.66,1.36-1.85,3.45-5.67,5.71-2.29-1.02,8.16-4.61,15.17-7.3,22.7-1.2,3.36-1.79,6.35,2.3,2.3,52.32-51.71,57.83-137.8,73.52-206.48,6.28-27.49,22.22-65.02,19.29-92.39-2.08-19.44-10.71-42.23-13.63-62.37-1.48-10.2,2.82-22.39-4.44-29.72l12.22-73.06c-2.85,1.91-16.75,1.1-17.89-.11-1.02-1.09.66-7.12-.1-7.89-.33-.33-6.05.28-8.49-.46-7.62-2.32-35.15-7.6-42.51-7.6-12.4,0-44.96,12.56-58.75,15-5.41.96-12.74-4.41-16.25,5.04l13.99-2.99c-8.93,12.83-25.23,16.55-33.99,28.99,15.47-5.88,30.88-6.75,46.91-8.07l15.08,4.07c-16.33,7.8-39.02,2.02-51.99,16,34.95-12.01,81.22-6.15,112.83,12.27,2.04,1.19,2.5,4.4,3.75,5.15,4.75,2.86,17.2,2.16,15.41,12.59-3.6,1.71-22.93-.52-23.99.03-.26.13,1.4,3.39.67,5.44-1.92,5.37-25.96,12.77-30.67,8.52-3.59-3.23,2.82-4.26,3.96-4.95,7.13-4.33,14.9-7.67,22-12.03-10.95-11.84-28.1-12.3-41.95-18.99,2.04,19.7-7.11,29.52-24,37l7.98,4.98c-6.94-.29-14.02.49-20.96-.01-3.29-.24-48.91-7.66-43.02-11.95l14-.04-6.02-19.97c-2.29-1.66-27.89,21.45-30,10.94l4-10.94h-7.98c-3.47,3.37,21.89,66,23.21,77.96.34,3.07.7,3.96-2.23,6.02-1.85-9.48-8.45-6.33-12-13.98l-.97,11.98c-7.17-21.63-15.24-42.89-22.48-64.53-1.57-4.7-5.36-9.16-6.61-13.39-3.84-12.98-1.89-23.24,5.02-34.57,1.33-2.18,12.95-17.48,14.97-19.56,11.19-11.55,24.45-3.62,27.07-21.91l-17.99,5.97c-4.47-10.84,8.45-14.15,9.62-16.29.39-.71-1.99-3.59-.76-5.65.75-1.26,22.86-14.66,25.14-15.22,3.7-.91,6.44.87,8.7.48,5.1-.87,9.72-4.31,15.31-3.3l-.99,4.01c5.74-.59,41.21-11.56,42.92-9.96.68.64-.5,5.36.06,5.94,1.45,1.52,33.82-6.78,41.39-7.14,6.59-.32,13.63-1.52,18.59,3.14l-5.97-11.01c6.39-4.26,7.49,4.09,10.94,7.13,1.8,1.6,5.43,1.28,6.53,2.37,3.33,3.29-1.1,11.21,12.5,11.51l-14.22-84.76c-25.2-43.59-56.37-82.64-90.73-119.27l-1.02-7.96c5.28,4.53,6.4,4.58,9.98-1.98-4.03-.54-8.55-3.11-12.7-2.08-1.55.38-1.13,4.18-2.31,4.14-2.58-.09-4.92-3.21-8.2-3.98-8.61-2.04-18.16-1.22-26.78-4.07,7.22,10.92,21.62,10.88,29.99,20.99l-5.97,1.96c4.84,5.91,9.14,12.36,13.18,18.83,1.06,1.7,5.01,4.34,1.81,6.19-21.44-34.41-62.52-44.41-101-42-.9-5.96,1.32-3.4,5.02-3.93,4.5-.65,12.09-1.99,16.07-2.14,5.02-.19,16.36,6.05,14.91-1.91-12.06-2.46-30.79-3.61-41.25,3.91-3.23,2.32-.54,5.83-.8,5.98-1,.57-5.33.06-7.96,1.05-11.18,4.22-29.64,13.64-41.13,12.83-14.28-1.01-6.72-7.08-9.1-9.64-.84-.9-5.48.99-5.91-1.24-2.55-13.09,2.39-10.43,12.13-13.9-4.94-3.89-25.51-15.13-29.98-8.99-1.65,2.27,9.8,11.23,4.95,21.95-5.04,11.16-21.2-15.28-30.98-8.93-1.18.77-1.33,3.7-3.52,4.92-14.9,8.36-23.81-10.67-37.65-11.93-5.75-.52-15.38,2.97-21.84,3.94-5.03.76-14.73-1.94-18.01,2-10.67,41.12,2.31,90.39-22.14,127.85-4.75,7.27-19.42,24.33-25.75,30.25s-34.19,23.28-36.09,27.84c-.88,2.11,1.66,6.12,2.08,9.11.23,1.64-1.2,3.85-1.06,4.97-2.67.39-5.52.84-6,3.98h9.99c.83-3.56-3.54-.39-3.99-3.98l.02-.03ZM1011.24,295.58c-.57-.56-4.87,1.59-7.02,1.66-2.59.09-10.15-4.56-4.01,6.46,1.61,2.9,9.81-1.44,13.06-.13-1.86-1.94-1.73-7.71-2.03-7.99ZM1266.59,316.27c-4.19-3.34-16.29-10.46-21.53-13.47-4.34-2.49-10.99-5.22-15.79-7.19,4.5,5.87,10.31,12.43,16.61,16.37,4.5,2.81,17.56,9.53,22.42,11.59.9.38,3.27.52,2.96-.97-2.21-1.46-2.9-4.92-4.67-6.33h0ZM1369.25,381.58c-1.13-29.92-10.01-64.73-31.96-85.99l17.51,35.47,14.45,50.52ZM451.26,305.61c-6.94-.66-21.41,6.63-26.88,6.09-1.78-.18-.35-4.71-2.1-4.1l-15.01,23.97c10.11-1.54,12.86-10.01,25.12-7.77l18.87-18.19h0ZM702.47,376.85c5.27-8.47,21.42-37.29,23.43-45.63,1.7-7.04,2.48-14.59.38-21.62-10.13,12.58-19.01,26.3-29.05,38.95-3.73,4.7-11.16,9.56-13.76,14.37-3.39,6.3,1.66,10.69-5.39,20.57-2.51,3.52-6.11-.33-3.71,10.05l-63.1,58.03c5.88-2.87,13.04-5.28,18.66-8.32,22.63-12.29,59.07-44.74,72.55-66.4h0ZM533.27,399.57c37.07-8.81,77.93-20.61,108.02-44.96,7.5-6.06,19.26-17.02,26-24,2.08-2.16,4.74-3.4,3.95-7.03-27.99,23-61.53,41.14-94.63,56.35-11.87,5.46-25.48,9.58-36.91,15.09-2.37,1.14-5.92,1.06-6.44,4.54h0ZM753.27,362.59c2.17-10.65-1.59-27.55,0-39-5.48,2.77-3.46,12.54-4.91,18.09-1.21,4.59-6.43,15.15-6.72,17.32-.39,2.87,4.37,4.8,3.38,9.1-.84,3.62-7.87,9.41-7.76,14.48,5.04-.49,15.28-16.37,16.02-19.98h-.01ZM810.95,357.19c2.13-1.83,4.95-27.06,3.33-31.58-10.78,4.73-9.18,11.6-12.84,19.16-3.12,6.46-12.97,12.67-15.08,18.92-2.69,7.95-.21,16.57-1.3,24.7-1.41,10.51-5.34,22.15-5.77,33.2,4.08-2.45,6.77-10.28,8.34-14.63,2.57-7.15,3.33-14.79,6.17-21.83,1.95-4.82,8.62-11.35,9.32-13.09,1.58-3.93.88-11.05,3.15-14.61,1.23-1.92,4.28.11,4.68-.23h0ZM1201.25,345.59c2.59-3.14-13.29-21.64-17.98-17.98,5.1,6.97,10.37,13.65,17.98,17.98ZM407.27,353.57c9,1.84,11.21-4.34,11.98-11.98l-11.98,11.98ZM1237.28,377.6c15.89,1.2.35-12.36-2.01-9.99l2.01,9.99ZM777.28,471.58c3.76.86,4.74-2.12,6.99-3.99,26.79-22.21,49.82-48.67,46.98-85.99l-11.01,31.96c-5.33,11.55-12.2,23.75-20.87,33.13-7.21,7.8-19.88,12.73-22.08,24.9h0ZM391.29,447.59c3.72-1.63,12.06-11.55,11.97-15-.07-2.77-3.49-4.6-3.53-7.6-.04-2.54,2.29-5.97,2.35-9.15.2-11.39-4.46-19.02-.82-30.24-2.89.97-5.82,7.34-6.95,10.02-1.93,4.55-8.18,23.3-8.41,27.25-.43,7.52,6.36,16.6,5.4,24.72h0ZM481.27,389.61l-15.99,7.96c7.34,1.24,12.75-1.31,15.99-7.96ZM1429.25,439.58l6-41.98-7.58,15.43c-.72,3.24,1.87,6.74,1.67,9.65-.31,4.64-4.62,14.61-.09,16.9h0ZM719.27,405.57c3.78.66,6.66-2.33,5.98-5.98l-5.98,5.98ZM411.26,463.6c-.25.17-3.18-2.28-5.9-1.07-1.46.65-7.31,6.75-7.61,8.29-.34,1.77,1.7,20.84,6.49,14.75l51.11-70.93c3.25-6.58-3.4-5.73-8.18-2.13-10.51,7.92-28.09,31.39-34.56,43.1-.94,1.71-.89,7.67-1.36,8h0ZM533.27,419.61c-10.63,4.58-51.88-4.92-57.6-1.59-1.24.72-13.21,20.67-16.4,23.55,1.51,1.17,30.43-13.02,23.71,6.69-1.15,3.36-38.04,25.29-37.7,37.32l63.87-39.11,24.12-26.86ZM591.27,487.61c-15.56.45-33.7,15.56-45.97,1.98l-12.03,19.98c18.73-9.03,42.14-8.03,58-21.96h0ZM765.26,489.6l-37.99,27.97c19.82-2.93,30.2-8.99,37.99-27.97ZM1419.24,509.58l4.01-13.97c-2.81.39-8.77,13.32-4.01,13.97ZM467.27,497.61c-10.49,2.77-19.49,14.36-29.49,17.49-14.44,4.53-28.76,6.21-24.53-13.5-2.24-.23-5.34,6.41-5.57,7.56-2.19,10.92,16.92,54.61,20.72,68.29,2.44,8.79-3.26,14.1,8.87,12.12-3.47-6.76,2.21-8.9,3.47-13.54,1.41-5.19,5.38-25.16,4.54-29.45-.35-1.81-17.85,8.64-18.03-1.91-.17-9.92,33.25-37.88,40.02-47.07h0ZM1371.26,507.58c-.41-.38-4.37.23-5.98.03-.86,3.28,3.47.92,4.04,3.26.75,3.12-.49,7.34-.03,10.71,3.28,0,2.48-13.52,1.97-14h0ZM467.97,532.29c6.43-5.61,19.39-11.74,19.28-20.7-8.11,7.62-25.35,16.88-31.01,25.97-.99,1.59-2.03,3.86.05,4.04,7.03,1.23,8.26-6.33,11.68-9.32h0ZM569.27,523.61c-8.28.89-15.73,4.44-13.99,13.97,2.78,3.15,13.18-11.6,13.99-13.97ZM1261.26,547.58c.83-.8-1.7-13.66-2.98-15.98l-3,15.98c1.62-.2,5.56.41,5.98,0ZM1251.26,547.62l-13.98-1.02c2.49,1.16,12.97,5.61,13.98,1.02ZM1223.26,547.61h-9.98v1.96h9.98v-1.96ZM1115.27,569.61c-5.74-.78-10.48,2.16-5,5.94l5-5.94ZM489.79,592.17c1.65-1.93,10.3-4.04,6.48-8.57-5.66,11.72-24.31,2.93-23,15.98,3.65-.78,13.83,1.16,16,0,.33-.18-2.36-4.04.52-7.4h0ZM427.26,609.63c-.47-.66-13.42-8.6-13.98-8.03l4.02,15.98c3.82,1.89,12.22-4.81,9.96-7.96h0ZM511.26,617.6c-3.54-3.81-8.95,8.01-2.99,7.95,2.06-.02,4.23-6.62,2.99-7.95ZM541.53,739.74c-1.91,1.93,1.17,15.75,4.74,17.81,5.35.06,7.97-23.34,6.98-27.96-4.94.46-5.07,8.32-6.53,9.58-1.23,1.06-4.64.02-5.19.57h0ZM539.25,887.59c.66-3.61-2.7-6.56-5.96-8-.66,3.61,2.7,6.56,5.96,8ZM529.27,997.61c-1.01-.81-22.59,7.79-24.1,9.43-7.52,8.17-3.98,33.89-11.9,44.53,7.29-2.18,11.22-8.77,18.21-12.77,2.71-1.55,9.48-2.84,9.8-3.24.54-.67-5.7-9.95-3.71-16.56,1.33-4.42,7.23-4.89,8.7-7.41,2.11-3.62.14-9.88,3-13.98ZM553.27,1107.57c1.12-1.33-.18-5.18-2.01-6.97-5.15-5.07-10.78-.42-13.99-1.91-7.93-3.67-8.88-36.4-12.03-45.1l-19.97,17.01c1.34,2.14,9.85-3.23,9.94,1.98.03,1.51-15.71,17.75-18.73,23.23-4.96,9.01-20.87,56.34-30.23,55.73l-5.99-13.91c-12.63,16.23-31.93,30.31-41.42,48.54-1.01,1.93-7.05,17.05-7.07,18.02-.1,3.9,13.88,33.39,16.37,35.53,2.06,1.78,2.43,2.45,5.16.98,4.36-2.34,25.65-51.77,30.92-61.16,17.31-30.85,39.25-53.77,72.52-67.48,3.63-1.5,15.97-3.84,16.53-4.5h0ZM563.17,1123.66c-24.5,1.65-47.75,21.68-62.93,39.9-20.67,24.82-27.41,59.15-47.32,82.68-4.49,5.31-7.75,9.63-15.66,9.36,2.08,6.71,21.62,47.99,25,47.94,7.17-11.21,20.93-15.73,30.29-24.67,5.38-5.13,9.65-14.21,13.37-18.62,2.62-3.1,13.21-7.29,10.97-12.44-.17-.4-2.74.2-3.18-1.2-2.01-6.29,2.88-7.3,3.48-8.47,11.22-21.65,32.56-46.4,55.36-56.28,9.81-4.25,19.56-4.55,28.67-9.29l-22.97-32.99c-.23,3.8-2.58,9.24-7,5.98-.24-.18,2.12-3.28,1.07-5.87-1.66-4.08-10.27-9.07-9.15-16.04h0ZM1131.25,1141.59l-19.48,12.49c-1.72,1.77-5.29,24.49-4.49,25.52.39.5,3.86-2.66,6.02-1.16,6.89,4.79-3.42,47.48-2.02,57.14l16.7-46.27c4.92-8.37,13.74-14.14,23.28-15.74,2.06-2.6-21.16-26.2-20.02-31.98h.01ZM1168.11,1192.75c-2.71-2.85-4.35-6.81-7.84-9.06-20,12.42-18.06,37.33-24.39,57.51-2.54,8.1-7.45,17.07-10.65,25.35-5.42,14.04-4.02,27.6-19.91,34.02,20.35,39.17,22.77,11.41,43.98-6.48,12.95-26.42,20.23-58.56,53.96-64.53-11.91-12.04-23.52-24.56-35.16-36.81h.01ZM621.23,1199.6c-5.4-.89-7.35,6.75-11.35,7.69-2.99.7-7.79-2-13.07-1.33-23.1,2.93-41.47,45.01-55.87,62.39-8.57,10.34-44.39,42.68-55.83,46.27-4.4,1.38-10.97-1.89-11.82-1.01-2.46,2.57,12.74,54.13,14.01,61.99,11.84-11.11,27.4-18.7,39.03-29.94,28.95-27.96,52.37-72.89,93.5-88.5,19.17-7.28,22.07,1.5,39.44,2.42l-38.04-59.97h0ZM401.28,1263.58l-9-27.98c-18.23,14.45-38.79,35.75-58.32,47.68-10.09,6.16-22.26,8.19-31.66,12.18-32.8,13.89-73.18,42.06-105.07,61.16-2.54,1.52-5.07-.4-3.95,4.96,9.65-.54,15.69-7.08,25.46-9.53,52.52-13.15,89.18-43.87,137.44-66.66,9.53-4.5,15.23-9.92,23.59-14.27,6.68-3.48,13.77-7.8,21.51-7.54ZM694.1,1300.76c-4.92-5.4-23.29-27.85-27.44-28.71-10.04-2.1-29.32,11.68-40.84,11.1-5.76,3.58-13.67,6.69-19.01,10.56-14.56,10.55-11.11,21.47-18.47,35.96-8.98,17.7-28.8,33.36-42.07,47.93l-48.06,31.88c4.41,23.72,14.19,45.17,11.06,70.1,2.22.4,4.01-.27,6.06-.91,18.28-5.74,80.45-49.68,93.92-64.64,7.91-8.78,14.88-22.69,22.01-31.44,19.83-24.35,53.14-53.86,85.99-55.01.83-3.04-.8-3.33-1.96-5.02-4.22-6.14-15.48-15.54-21.19-21.81h0ZM183.27,1365.61c-3.57-.22-8.54,2.24-10,5.96,3.57.22,8.54-2.24,10-5.96ZM483.25,1477.58c-1.2-3.42-.11-12.63-3.96-13.98.1,3.85-.75,12.67,3.96,13.98Z"/>
  <path d="M1443.86,1732.13c7.57-17.86,1.48-16.17,1.41-33.54-.03-8.5,3.87-21.04,4.08-29.92,2.12-88.65-28.47-180.54-43.53-268.62-3.05-17.82-8.22-38.87-10.31-55.69-1.59-12.75-3.74-41.65,15.32-23.34,20.72,62.98,32.69,128.28,46.98,193.04,12.86,58.3,24.65,94.13,21.55,156.62-.81,16.23-6.09,63.99-12.62,77.38-10.24,20.99-27.53-4.94-22.87-15.92h0Z"/>
  <path d="M190.35,1536.52c13.18,9.18,14.02,9.62,28.39,16.6,27.34,13.29,62.32,70.76,78.12,97.88,12.22,20.98,21.24,44.04,34.46,64.56,1.64-.08,3.81.88,3.99-1.01.55-5.76-2.85-18.63-4.02-24.96,3.69-2.92,10.37,10.88,11.56,13.42,3.36,7.12,14.97,46.09,13.91,51.74-.44,2.35-8.79,1.56-3.49,12.81-8.88-1.46-20.29,1.54-27.98-3.41-6.07-3.91-19.16-22.93-23.66-29.93-18.93-29.44-32.71-64.33-52.37-93.69-.27-1.02,4.05-.93,4.12-1.97.46-6.46-47.95-61.67-56.05-70.04s-31.61-31.99-41.09-34.92c-5.7-1.76,1.71,14.89,2.66,17.35,11.29,29.28,28.67,64.7,43.29,92.71,14.92,28.58,30.66,57.44,53.07,80.93-2,3.25-4.42-.67-6.01-1.99-31.86-26.71-53.62-75.09-72.38-111.72-9.03-17.63-20.83-39.05-29.32-58.58-7.23-16.64-20.1-38.54,10.55-34.53,10.97,1.44,23.14,12.41,32.24,18.75h.01Z"/>
  <path d="M874.46,1838.85c-3.64,7.25-5.53,2.54-8.97,1.91-2.01-.37-4.45.53-6.23-.14-13.57-5.14-14.79-31.34-18.99-45.03-27.52-89.6-85.94-164.18-121.96-250.04-3.26-7.77-13.25-33.38-10.06-39.94,5.17-10.61,15.16,3.59,18.69,9.3,17.12,27.66,31.57,63.03,47.98,92.02,35.35,62.44,85.34,130.7,99.85,202.15,1.96,9.63,4.11,20.95-.32,29.77h.01Z"/>
  <path d="M1334.8,1420.08c2.81,2.81,13.23,50.74,15.48,59.48,6.85,26.66,15.04,54.27,18.74,83.28,6.74,52.84.4,104.67,7.5,158.96.82,6.26,4.84,14.4,4.76,20.83-.04,3.06-4.67,19.35-6.22,21.74-7.76,11.94-30.15-2.56-29.71-11.8.13-2.67,3.08-4.67,3.38-6.51,2.26-14.24-3.08-36.34-3.54-51.39-1.45-47.35,3.02-97.07-1.95-144.05-3.99-37.65-22.44-82.57-24.08-117.98-.44-9.41,5.63-22.56,15.64-12.56h0Z"/>
  <path d="M1533.27,1669.57l1.99-5.97c-3.27-2.43-8.48,6.25-9.97-11.04-3.27-37.75,1.58-71.38-5.46-110.58-8.98-50.04-20.5-100.55-32.06-149.9-1.72-7.34-2.5-31.45-8.45-35.68-2.06-1.47-7.87,3.06-10.04-1.84-2.66-6.01,16.37-8.57,21.14-5.13,5.54,4.01,19.64,55.46,22.29,65.7,17.45,67.31,40.61,158.56,33.79,227.11-.85,8.53-1.42,28.37-13.24,27.33h0Z"/>
  <path d="M874.1,1638.77c20.76,27.69,55.72,49.17,79.22,75.78,15.78,17.86,35.26,48.27,43.35,70.65,2.56,7.1,6.13,17-3.22,18.31-18.17-45.47-52.23-75.79-86.15-108.94-6.41-6.26-16.67-12.76-23.04-19.04-23.57-23.27-40.46-52.77-50.98-83.92,20.9,4.96,29.03,31.44,40.82,47.17h0Z"/>
  <path d="M1297.27,1777.59c-.65,1.65-.97,11.93-4.97,9.98-2.92-1.42-14.1-21.11-5.02-20.96-11.07-31.25-3.88-70.39-4.77-104.34-.38-14.69-.95-31.12-2.27-45.66-.24-2.7-2.81-5.21-2.82-8.01-.03-6.27,8.17-14.7,11.9-7.54,3.27,6.28,8.28,42.8,9.12,51.92,1.56,16.93,0,34.59.77,51.68,1.26,27.72,8.49,46.65-1.93,72.93l-.02-7.99c-1.09-2.42-5.06,6.88-3.97,7.98h3.99-.01Z"/>
  <path d="M1220.47,1842.38c-2.11-2.06-3.71-1.95-5.39-5.56-8.53-18.3-12.39-102.84-2.67-119.09,1.28-2.14,8.34-8.15,9.87-8.09,6.48.25,1.04,22.64.91,26.87-.95,28.83,1.65,65.54,8.59,93.55,1.5,6.04,8.66,8.37,1.39,14.43-7.9,6.57-8.36,2.12-12.7-2.11h0Z"/>
  <path d="M380.68,1330.22c2.56,2.11,19.56,24.58,22.27,28.69,4.2,6.4,32.53,59.99,30.3,62.68-8.55-11.05-12.58,3.41-22.03-6.96-9.33-19.14-24.91-36.97-34.29-55.7-2.77-5.53-13.86-28.22-4.41-31.2,2.35-.74,6.22.91,8.15,2.5h.01Z"/>
  <path d="M789.25,1465.59c4.21,4.41,1.26,32.92,20,30,1.37-5.34-7.47-18.32-5.13-22.01.83-1.3,8.51-5.29,10.16-5.27,12.16.1,21.75,31.6,14.44,40.75-2.13,2.66-18.97,6.52-22.56,6.28-16.47-1.07-31.85-29.01-24.85-44.31.2-.44,6.21-7.25,7.94-5.44Z"/>
  <path d="M1591.09,1567.47c-.23.31-7.56.44-7.81.14s.02-5.57-.96-8.03c-1.4-3.51-5.83-8.81-6.11-10.94-1.18-8.95,3.87-28.23,3.13-40.14-.64-10.35-4.2-22.61-6.06-32.91,13.17-3.81,17.22,8.59,19.52,19.45,2.87,13.58.87,28.26.58,41.61-.17,7.65,2.68,24.14-2.29,30.8v.02Z"/>
  <path d="M983.24,1285.57l-2.95-6.01c18.43-26.47,33.86-55.61,54.96-79.97-14.51,30.29-35.05,57.14-52.01,85.98Z"/>
  <path d="M969.25,1281.62c-1.39,4.4-10.76,2.48-13.98,1.95l13.98-1.95Z"/>
  <path d="M916.97,635.85c2.18,3.84-1.99,8.05-5.69,8.98-4.12,1.04-6.99-3.8-13.01-3.48-3.84.2-9.52,5.37-10.99,4.23-2.59-2-2.61-11.06,3.99-10.03-11.72-12.05-30.43-17.6-46.98-19.98-1.09.21-.24,18.39-1.99,22.09-.45.96-14.31,14.14-15.2,14.71-7.94,5.1-29.19,3.27-38.18.57-5.46-1.63-12.6-8.24-17.64-6.36l3.99,4.99c-3.21,3.99-27.67-2.06-31.93-5.04s-3.58-8.87-5.16-9.04c-5.95-.64-23.57,8.11-32.9,4.1-1.08-7.2,7.73-12.68,13.35-15.63,47.73-25.13,125.61-37.27,173.33-8.04,2.99,1.83,24.26,16.61,25.02,17.95v-.02ZM777.27,643.57c-3.4-6.35-8.16-12.31-8.02-19.98-2.94,2.7-21.14,7.21-21.98,8.02-3.03,2.95,1.01,3.49,2.56,4.48,3.64,2.33,25.03,9.32,27.44,7.48Z"/>
  <path d="M1100.53,892.36c9.71,6.3,20.11,14.39,29.74,21.23,4.53,3.22,7.07,10.44,13.48,9.71,4.09-.47,6.39-4.52,10.55-1.89,16.03,10.13-15.45,16.06-23.81,15.97-11.69-.13-23.75-6.02-34.39-7.62-6.02-.91-29.28-4.21-33.83-4.22-9.72-.02-23.65,9.87-33.75,9.87-15.52,0-34.27-11.37-48.46-11.6-12.62-.2-34.11,7.4-48.13,9.45-22.91,3.36-59.24,9.16-80.73,1.31-8-2.93-4.68-15.73,3.18-16.99,8.54-1.37,11.86,4.66,19.24,6.65,25.44,6.85,87.8-13,116.66-12.79,13.88.1,25.41,8.15,44.1,6.26,7.59-.77,19.87-7.4,25.59-6.19,3.54.75-3.15,2.11,10.3,2.08,18.2-.05,33.37,6.9,50.99,9.99l-20.64-8.4c-8.03-8.11-13.04-9.06,2.64-10.57l-17.95-12.01c5-7.32,8.98-4.28,15.22-.23h0Z"/>
  <path d="M505.78,693.08c1.97,1.96,10.79,2.89,9.49,7.5-.42,1.5-4.2,2.03-5.43,3.7-1.55,2.11.43,7.55-6.59,6.23-17.03-13.99-31.06-31.61-51.97-40.91l-13.86,49.14c-6.2,11.21-5.12,2.69-7.5-.63-1.62-2.24-4.11-2.96-4.64-3.9-5.22-9.3,1.39-41.95,7.98-51.64l-7.98-.99c3.59-28.99,42.45-7.82,56.06,2.96,10.58,8.37,17.1,21.21,24.46,28.54h-.02Z"/>
  <path d="M489.28,727.58c4,4.34,5.38-7.16,6.28-7.71,2-1.22,6.99.12,9.72-.28,4.53,11.76-21.31,41.09-21.34,46.99-.04,7.18,22.8,18.61,26.36,26.99,4.43,1.95.72-11.92.51-12.53-1.1-3.25-10.9-9.8-7.53-13.45,5.47-5.92,19.7,21.05,15.08,31.08-3.38,7.34-11.35,1.87-11.12,8.89-4.22.46-.58-6.38-2.15-7.88-.78-.75-4.4.44-5.6-.26-.29-.17,1.12-2.9.5-3.83-8.51-12.67-29.7-11.49-34.66-25.06-1.65-4.52-1.13-9.31-2.17-13.49-.78-3.14-2.1,2.49-2.35-8.45-.27-12.16,2.15-25.69,12.64-33.74,27.39-21.02,14.56,11.34,15.83,12.71v.02Z"/>
  <path d="M1055.25,983.6l2.03,5.97c-42.93,7.23-81.2.64-120-18.01l3.97-3.95-5.98-4.01,5.99-2-5.98-2c11.21.11,21.4,5.31,31.5,9.38,2.22.89,2.33,3.75,3.46,4.13,16.54,5.54,73.76.34,91.76-3.8,6.34-1.46,32.44-12.1,34.22-11.75.99.2,3.66,3.26,3.04,4.98-13.9,8.02-27.71,18.28-44.01,21.04v.02Z"/>
  <path d="M1099.25,745.61c1.59,1.56-5.23,23.41-8.02,26.95,13.37.32,6.11,16.73-.83,21.17-5.3,3.39-11.08.83-17.06,2.94-8.94,3.15-19.4,18.03-31.53,20.47-4.92.99-24.32-.06-26.53-4.57-1.82-3.72,10.73-5.34,12.43-7.71,15.5,2.43,37.76-16.79,47.19-28.54,5.57-6.95,14.69-29.09,18.33-31.84.7-.53,5.8.92,6.02,1.13h0Z"/>
  <path d="M970.74,768.07c4.71-.81,10.7-1.05,15.41-.34,3.74.56,29.59,12.53,31.3,14.68,12.84,16.18-21.71,8.36-29,9.37-7.22,1-14.47,7.41-19.3,7.23-8.13-.29-28.72-5.97-22.93-17.43,2.12-4.2,19.43-12.63,24.53-13.5h-.01Z"/>
  <path d="M912.87,570.06c1.16.75,15.22,18.98,17.12,21.81,2.42,3.59,8.53,18.95,9.31,19.72,1.05,1.03,5.31.53,3.95-2.96-2.04-5.22-21.5-30.46-17.96-35.05,5.31,4.34,3.42-2.47,4.97-1.98l14.02,17.98c.1-18.28,12.77-4.59,17.89,4.11,2.74,4.66,4.42,14.49,5.33,15.66.15.19,2.73-1.3,4.77.08,7.81,5.3,3.61,7.9,3.25,13.28-.07,1,3.23.54,3.69,2.26,2.86,10.69,1.94,23.83.04,34.61l-6.07-32.7c-1.76-4.74-2.61-10.91-4.91-15.28-3.23-6.15-1.91,4.58-6.96,1.98-2.77-7.12-7.73-15.61-14.02-19.99,2.59,8.47,3.23,15.3,3.99,24.01l7.99-1.99c-2.4,4.75-2,10.19-3.89,15.09-5.46,14.18-22.36,30.68-33.09,38.76-2.03,1.53-8.49,10.51-11.02,8.11,1.36-5.6,6.43-7.09,9.33-11.63,3.9-6.1,12.02-26.95,15.68-30.34,6.62-6.14,9.01-.88,3.01,5.01,3.35,3.61,8-5.29,9.44-8.55,4.63-10.5-.31-8.77-2.45-18.49-2.92,2.26,3.9,16.24-2,15.98-.65-.03-3.06-3.84-5.14-4.82-14.48-6.79-15.76-11.55-26.8-21.21-9.59-8.39-19.42-16.59-29.04-24.95,1.07-1.52,6.68-2.41,8.08-1.91,1.7.61,26.68,24.29,27.89,22.92-1.07-9.95-16.62-14.98-14.99-23.99,2.65,1.4,9.56,15.18,13.01,11.97-2.91-2.05-16.57-25.39-4.39-17.51h-.03Z"/>
  <path d="M854.27,591.59c14.49.5,22.26,1.62,36.35,7.65,3.35,1.43,28.82,14.48,24.64,18.34-17.04-.26-31.27-12.1-47.47-15.51s-36.4-1.67-51.48-4.52c-3.18-.6-6.06-2.84-7.04-5.96,14.95.38,30.04-.52,45,0h0Z"/>
  <path d="M463.26,793.58c-26.31-2.6-23.53-32.57-21.96-52.96.84-10.97,3.66-27.66,8.98-37.02,4.57,22.19-4.25,48.28,3.6,70.38,1.14,3.22,11.31,17.81,9.38,19.6h0Z"/>
  <path d="M933.27,741.61l-16.02,29.96,6.03.04c-9.21,12.38,6.49,19.28,15.77,25.2l8.22,10.77c-12.85-1.43-25.49.34-32.84-12.14-5.46-9.27-6.7-23.34-.93-32.81,2.04-3.35,5.45-1.11,6.76-2.88,1.75-2.35,2.55-18.85,13.02-18.14h-.01Z"/>
  <path d="M1215.25,487.58c-4.5-2.65-.91-12-2.02-16.62-.75-3.09-2.99-8.81-4.5-15.84-4.61-21.46-10.33-42.39-19.74-62.25l-11.7-21.28c4.23,6.11,20.02,11.84,21.57,17.41,1.15,4.14-.21,8.88.85,13.15,1.36,5.48,6.14,11.53,8.12,17.88,6.22,19.93,9.5,47.07,7.42,67.55h0Z"/>
  <path d="M1062.8,878.1c.92.44,5.79,5.19,3.52,7.55-4.09,4.25-25.79,12.02-32.2,12.16l-34.84-16.25.99-3.97c13.87-3.84,20.21,8.31,31.88,8.08,7.1-.14,28.15-8.76,30.65-7.57h0Z"/>
  <path d="M781.27,595.61c-10.16,9.13-25.88,10.51-37.96,15.02-3.22,1.2-36.09,19.9-36,9.96.07-8.62,63.12-28.5,73.96-24.98h0Z"/>
  <path d="M987.26,879.6c.21.21.23,5.76.02,5.98-.6.64-12.88,2.5-17.04,3.99-23.23,8.32-46.5,23.11-70.96,24.01l45.47-21.5c6.13-1.41,39.86-15.2,42.51-12.47h0Z"/>
  <path d="M1087.28,809.58c1.32-17.39,24.46-15.78,21.85-36.8-.71-5.72-7.89-13.72,1.11-15.18,15.54,25.08,4.53,44.9-22.96,51.98h0Z"/>
  <path d="M895.27,659.61c-21.69,18.9-55.84,26.8-83.99,31.96l43.47-19.5,40.52-12.46Z"/>
  <path d="M1232.17,614.82c.67.88,2.93.56,2.84,1.66-.13,1.59-1.2,7.96-4.65,7.03-5.55-1.49-21.34-13.11-27.68-16.34l-25.39-9.56c18.3-3.64,43.38,2.15,54.88,17.21h0Z"/>
  <path d="M1167.26,685.62c.6,2.67-3.21,2.93-4.95,2.96-8.06.12-19.04-2.09-27.05-3.97-6.29-1.47-39.22-10.56-37.97-17.99.88-5.23,4.84-.69,6.22-.29,21.27,6.19,42.16,14.13,63.76,19.28h-.01Z"/>
  <path d="M1223.25,469.58l-17.96-75.99c16.91,18.72,16.87,51.67,17.96,75.99Z"/>
  <path d="M1017.71,863.17c2.34,4.12,15.41,2.93,13.54,7.39-3.12,7.44-18.03-3.21-19.56-8.38-2.12-7.18-.43-24.89,7.56-28.59-.08,6.85-4.63,24.12-1.54,29.58Z"/>
  <path d="M895.26,653.61l-35.99,12.97-29.98,6.99c1.54-3.56,9.33-4.85,12.95-6.02,16.85-5.46,35.79-11.25,53.03-13.94h-.01Z"/>
  <path d="M1155.26,333.62c.28.28-.1,1.31,0,1.95-3.57.54-7.01-.12-7.99-3.96,1.57-.21,7.53,1.55,7.98,2.01h.01Z"/>
</svg>