<svg id="canvas" width="987.940" height="272.263" viewBox="176.364 219.770 987.940 272.263" preserveAspectRatio="xMidYMid meet" class="h-full w-full max-w-4xl text-primary transition-opacity duration-300 opacity-100" xmlns="http://www.w3.org/2000/svg"><g id="canvas-strokes"><path d="M 265.56,230.50 C 264.64 229.42, 263.27 228.63, 260.67 228.27 C 258.06 227.92, 256.29 228.04, 252.54 228.73 C 248.79 229.42, 246.28 229.97, 241.90 231.72 C 237.52 233.47, 235.13 234.64, 230.65 237.47 C 226.18 240.30, 223.64 242.02, 219.54 245.87 C 215.45 249.71, 213.17 252.03, 210.18 256.71 C 207.19 261.38, 205.72 264.18, 204.59 269.26 C 203.47 274.34, 203.40 277.16, 204.56 282.10 C 205.72 287.04, 207.11 289.50, 210.39 293.97 C 213.68 298.44, 216.14 300.47, 220.97 304.44 C 225.81 308.41, 229.01 310.16, 234.56 313.82 C 240.11 317.48, 243.41 319.19, 248.72 322.74 C 254.04 326.29, 256.94 328.07, 261.13 331.59 C 265.33 335.12, 267.32 336.97, 269.68 340.36 C 272.05 343.76, 272.69 345.28, 272.96 348.55 C 273.23 351.82, 272.93 353.25, 271.02 356.71 C 269.12 360.18, 267.53 362.16, 263.45 365.89 C 259.37 369.61, 256.40 371.75, 250.60 375.34 C 244.81 378.92, 241.09 380.89, 234.46 383.82 C 227.83 386.75, 223.94 388.18, 217.46 389.99 C 210.97 391.79, 207.38 392.41, 202.03 392.84 C 196.68 393.28, 194.05 392.97, 190.71 392.16 C 187.37 391.36, 186.60 390.72, 185.33 388.82 C 184.06 386.92, 183.82 385.94, 184.37 382.67 C 184.92 379.39, 185.48 377.14, 188.08 372.45 C 190.67 367.76, 192.75 364.69, 197.34 359.21 C 201.93 353.73, 204.97 350.49, 211.02 345.04 C 217.07 339.58, 220.70 336.73, 227.57 331.95 C 234.44 327.17, 238.39 324.85, 245.35 321.14 C 252.31 317.42, 256.02 315.83, 262.37 313.37 C 268.73 310.90, 271.87 310.00, 277.13 308.81 C 282.40 307.63, 284.88 307.41, 288.70 307.46 C 292.51 307.50, 293.95 308.16, 296.20 309.04 C 298.46 309.93, 298.99 310.43, 299.96 311.89 C 300.92 313.35, 300.89 314.27, 301.01 316.34 C 301.13 318.41, 300.84 319.63, 300.56 322.25 C 300.27 324.87, 300.03 326.45, 299.59 329.45 C 299.15 332.45, 298.63 334.20, 298.35 337.24 C 298.07 340.29, 297.84 341.94, 298.18 344.68 C 298.52 347.42, 298.84 348.82, 300.06 350.96 C 301.27 353.09, 302.15 354.22, 304.26 355.37 C 306.38 356.51, 307.95 356.97, 310.64 356.67 C 313.34 356.38, 314.97 355.86, 317.74 353.90 C 320.51 351.93, 321.72 350.18, 324.48 346.85 C 327.24 343.52, 328.74 341.38, 331.54 337.25 C 334.35 333.11, 335.89 330.38, 338.53 326.18 C 341.17 321.98, 343.02 319.55, 344.76 316.25 C 346.49 312.94, 347.17 311.19, 347.20 309.65 C 347.23 308.10, 345.93 307.53, 344.91 308.51 C 343.89 309.49, 342.97 311.06, 342.08 314.54 C 341.20 318.01, 340.95 321.05, 340.50 325.89 C 340.06 330.73, 339.77 333.88, 339.85 338.72 C 339.93 343.57, 339.84 346.20, 340.91 350.14 C 341.99 354.07, 342.77 356.08, 345.23 358.39 C 347.70 360.70, 349.80 361.53, 353.23 361.68 C 356.66 361.82, 358.68 360.97, 362.37 359.10 C 366.05 357.22, 367.99 355.66, 371.66 352.30 C 375.34 348.95, 377.18 346.61, 380.73 342.33 C 384.27 338.05, 386.17 335.31, 389.39 330.88 C 392.60 326.46, 394.19 323.90, 396.80 320.20 C 399.41 316.51, 401.12 314.91, 402.44 312.40 C 403.75 309.90, 403.65 308.54, 403.36 307.69 C 403.07 306.83, 401.93 306.81, 400.98 308.13 C 400.02 309.44, 399.37 310.92, 398.58 314.26 C 397.80 317.59, 397.72 320.28, 397.03 324.81 C 396.34 329.34, 395.91 332.34, 395.15 336.90 C 394.38 341.45, 393.47 343.99, 393.20 347.59 C 392.94 351.19, 392.88 352.96, 393.80 354.92 C 394.73 356.87, 395.99 357.57, 397.84 357.36 C 399.68 357.15, 401.35 356.48, 403.02 353.85 C 404.68 351.23, 404.78 348.64, 406.15 344.22 C 407.52 339.80, 408.24 336.83, 409.85 331.76 C 411.46 326.68, 412.43 323.61, 414.18 318.84 C 415.94 314.07, 416.93 311.46, 418.63 307.90 C 420.34 304.34, 421.40 303.07, 422.69 301.02 C 423.99 298.97, 424.09 298.36, 425.11 297.63 C 426.14 296.91, 426.43 297.17, 427.82 297.40 C 429.21 297.63, 429.93 298.30, 432.06 298.81 C 434.19 299.31, 435.61 299.81, 438.48 299.91 C 441.34 300.02, 443.07 299.84, 446.39 299.33 C 449.71 298.83, 451.61 298.36, 455.07 297.38 C 458.53 296.39, 460.42 295.69, 463.70 294.42 C 466.97 293.15, 468.80 292.47, 471.44 291.01 C 474.09 289.56, 475.60 288.59, 476.93 287.15 C 478.26 285.72, 478.43 284.47, 478.09 283.85 C 477.75 283.23, 476.49 282.80, 475.24 284.07 C 473.99 285.33, 473.16 286.75, 471.82 290.17 C 470.48 293.58, 469.90 296.33, 468.54 301.14 C 467.18 305.95, 466.11 309.01, 465.03 314.21 C 463.94 319.41, 463.27 322.44, 463.11 327.12 C 462.95 331.81, 462.87 334.29, 464.25 337.63 C 465.63 340.97, 467.09 342.52, 470.01 343.83 C 472.92 345.14, 475.13 345.21, 478.83 344.17 C 482.53 343.13, 484.53 341.71, 488.48 338.64 C 492.44 335.58, 494.53 333.28, 498.60 328.86 C 502.67 324.45, 504.90 321.62, 508.81 316.56 C 512.73 311.50, 514.79 308.44, 518.17 303.56 C 521.55 298.68, 523.31 295.92, 525.71 292.15 C 528.10 288.38, 529.43 286.83, 530.15 284.71 C 530.87 282.60, 530.17 281.63, 529.31 281.58 C 528.45 281.52, 526.87 281.90, 525.83 284.44 C 524.79 286.98, 524.92 289.28, 524.09 294.26 C 523.27 299.24, 522.77 302.45, 521.70 309.36 C 520.64 316.26, 519.99 320.35, 518.77 328.78 C 517.54 337.21, 516.91 342.03, 515.59 351.51 C 514.27 360.99, 513.67 366.21, 512.17 376.17 C 510.67 386.14, 509.97 391.48, 508.12 401.33 C 506.27 411.18, 505.30 416.32, 502.91 425.42 C 500.52 434.51, 499.12 439.04, 496.18 446.81 C 493.25 454.59, 491.57 458.31, 488.23 464.29 C 484.89 470.26, 483.00 472.90, 479.47 476.68 C 475.94 480.46, 473.94 481.68, 470.59 483.18 C 467.23 484.68, 465.67 484.72, 462.69 484.18 C 459.71 483.65, 458.25 482.96, 455.68 480.48 C 453.10 478.00, 451.63 476.20, 449.82 471.77 C 448.00 467.35, 447.02 464.45, 446.61 458.36 C 446.19 452.28, 446.27 448.57, 447.73 441.34 C 449.20 434.11, 450.41 430.01, 453.92 422.22 C 457.44 414.43, 459.83 410.24, 465.31 402.41 C 470.78 394.57, 474.17 390.54, 481.30 383.05 C 488.42 375.56, 492.67 371.82, 500.94 364.96 C 509.20 358.10, 513.93 354.81, 522.64 348.75 C 531.34 342.70, 536.03 339.90, 544.47 334.69 C 552.91 329.48, 557.26 327.13, 564.85 322.70 C 572.44 318.26, 576.17 316.22, 582.43 312.51 C 588.68 308.81, 591.53 307.10, 596.13 304.17 C 600.74 301.24, 602.89 300.31, 605.47 297.87 C 608.04 295.44, 608.76 294.18, 609.02 292.00 C 609.28 289.82, 608.61 288.41, 606.77 286.98 C 604.94 285.55, 603.10 284.62, 599.83 284.87 C 596.57 285.12, 594.44 286.18, 590.45 288.21 C 586.47 290.23, 584.22 291.57, 579.91 294.99 C 575.60 298.41, 573.05 300.65, 568.88 305.32 C 564.71 310.00, 562.37 313.02, 559.06 318.37 C 555.76 323.71, 554.21 326.91, 552.34 332.03 C 550.46 337.16, 549.64 339.88, 549.69 343.99 C 549.75 348.11, 550.42 350.28, 552.62 352.60 C 554.82 354.91, 557.13 355.77, 560.69 355.58 C 564.25 355.40, 566.43 354.17, 570.42 351.67 C 574.41 349.18, 576.57 347.16, 580.63 343.10 C 584.70 339.04, 586.91 336.33, 590.74 331.37 C 594.57 326.41, 596.72 323.01, 599.78 318.30 C 602.85 313.60, 604.77 311.01, 606.07 307.84 C 607.36 304.67, 607.03 303.14, 606.26 302.48 C 605.49 301.81, 603.55 302.11, 602.22 304.51 C 600.90 306.91, 600.35 309.84, 599.62 314.48 C 598.90 319.11, 598.38 322.58, 598.61 327.70 C 598.85 332.82, 599.10 335.76, 600.81 340.06 C 602.51 344.37, 603.83 346.59, 607.13 349.20 C 610.42 351.82, 612.83 352.53, 617.28 353.13 C 621.72 353.73, 624.36 353.23, 629.34 352.21 C 634.32 351.18, 637.04 350.17, 642.17 348.03 C 647.31 345.89, 650.39 344.08, 655.01 341.51 C 659.63 338.93, 662.11 337.51, 665.29 335.15 C 668.47 332.79, 670.09 331.22, 670.90 329.71 C 671.71 328.21, 670.97 327.30, 669.34 327.63 C 667.71 327.95, 666.06 329.36, 662.74 331.33 C 659.43 333.30, 657.21 334.96, 652.75 337.47 C 648.29 339.99, 645.31 341.86, 640.45 343.90 C 635.58 345.94, 632.94 346.78, 628.43 347.66 C 623.92 348.55, 621.55 348.78, 617.90 348.33 C 614.25 347.88, 612.65 347.39, 610.16 345.40 C 607.68 343.40, 606.66 341.91, 605.49 338.35 C 604.31 334.79, 604.20 332.18, 604.27 327.60 C 604.35 323.03, 605.12 319.82, 605.85 315.49 C 606.58 311.16, 607.96 308.67, 607.93 305.95 C 607.90 303.24, 606.99 302.04, 605.69 301.92 C 604.39 301.80, 603.37 302.53, 601.44 305.34 C 599.50 308.15, 598.82 311.26, 596.03 315.96 C 593.23 320.66, 591.18 324.06, 587.47 328.84 C 583.76 333.61, 581.45 336.17, 577.49 339.84 C 573.53 343.50, 571.17 345.14, 567.69 347.16 C 564.21 349.18, 562.43 349.49, 560.09 349.93 C 557.76 350.37, 557.15 350.55, 556.03 349.36 C 554.91 348.18, 554.44 347.18, 554.49 343.99 C 554.54 340.80, 554.70 338.13, 556.28 333.41 C 557.85 328.70, 559.26 325.49, 562.38 320.41 C 565.50 315.34, 567.80 312.38, 571.86 308.05 C 575.93 303.72, 578.49 301.62, 582.69 298.77 C 586.89 295.91, 589.22 295.06, 592.86 293.78 C 596.51 292.51, 598.46 292.98, 600.92 292.40 C 603.38 291.82, 604.22 291.15, 605.17 290.88 C 606.12 290.60, 606.27 290.32, 605.68 291.01 C 605.09 291.70, 604.52 292.29, 602.22 294.34 C 599.91 296.40, 598.40 298.12, 594.15 301.29 C 589.90 304.45, 587.08 306.28, 580.98 310.15 C 574.88 314.02, 571.17 316.12, 563.64 320.66 C 556.11 325.20, 551.77 327.58, 543.33 332.85 C 534.89 338.13, 530.19 340.95, 521.45 347.05 C 512.70 353.15, 507.95 356.45, 499.60 363.35 C 491.26 370.25, 486.97 374.00, 479.72 381.54 C 472.47 389.08, 469.01 393.12, 463.37 401.04 C 457.73 408.95, 455.23 413.17, 451.50 421.11 C 447.77 429.04, 446.43 433.20, 444.72 440.69 C 443.01 448.18, 442.73 452.02, 442.94 458.55 C 443.16 465.08, 443.90 468.27, 445.78 473.34 C 447.67 478.42, 449.15 480.83, 452.38 483.92 C 455.61 487.01, 457.95 488.20, 461.94 488.80 C 465.93 489.40, 468.32 488.87, 472.34 486.90 C 476.35 484.93, 478.33 483.21, 482.01 478.96 C 485.69 474.71, 487.44 471.90, 490.74 465.65 C 494.04 459.39, 495.64 455.61, 498.52 447.68 C 501.40 439.75, 502.77 435.18, 505.13 425.99 C 507.49 416.80, 508.44 411.64, 510.30 401.74 C 512.16 391.85, 512.87 386.49, 514.42 376.51 C 515.97 366.54, 516.61 361.32, 518.05 351.87 C 519.49 342.41, 520.16 337.60, 521.63 329.24 C 523.09 320.87, 523.87 316.82, 525.39 310.05 C 526.90 303.28, 527.83 300.23, 529.20 295.40 C 530.56 290.57, 532.03 288.77, 532.23 285.91 C 532.43 283.06, 531.42 281.88, 530.18 281.12 C 528.95 280.36, 527.75 280.40, 526.05 282.11 C 524.34 283.83, 523.89 285.84, 521.66 289.69 C 519.42 293.53, 518.06 296.45, 514.87 301.35 C 511.69 306.24, 509.63 309.26, 505.75 314.17 C 501.88 319.08, 499.55 321.82, 495.50 325.90 C 491.44 329.98, 489.15 332.01, 485.48 334.57 C 481.81 337.13, 479.85 337.77, 477.15 338.68 C 474.46 339.60, 473.56 339.74, 472.01 339.14 C 470.46 338.55, 470.17 338.07, 469.40 335.69 C 468.63 333.32, 468.06 331.35, 468.17 327.27 C 468.27 323.20, 468.73 320.17, 469.91 315.31 C 471.08 310.45, 472.31 307.47, 474.04 302.97 C 475.78 298.47, 477.26 296.19, 478.58 292.81 C 479.90 289.43, 480.61 288.23, 480.63 286.07 C 480.65 283.92, 480.03 282.99, 478.67 282.04 C 477.31 281.10, 475.99 280.90, 473.81 281.34 C 471.64 281.79, 470.36 282.93, 467.81 284.28 C 465.26 285.62, 463.98 286.80, 461.08 288.08 C 458.18 289.35, 456.40 289.92, 453.30 290.66 C 450.20 291.41, 448.46 291.64, 445.57 291.81 C 442.68 291.98, 441.38 291.64, 438.85 291.51 C 436.31 291.38, 435.18 291.13, 432.90 291.15 C 430.61 291.17, 429.52 291.12, 427.42 291.60 C 425.32 292.07, 424.35 292.29, 422.41 293.51 C 420.47 294.74, 419.39 295.25, 417.70 297.71 C 416.00 300.18, 415.52 301.93, 413.93 305.83 C 412.35 309.73, 411.52 312.37, 409.75 317.22 C 407.98 322.07, 406.97 325.12, 405.08 330.10 C 403.19 335.07, 402.07 337.96, 400.31 342.09 C 398.55 346.22, 397.06 348.12, 396.30 350.76 C 395.53 353.40, 396.10 354.56, 396.49 355.30 C 396.87 356.05, 397.62 355.89, 398.22 354.49 C 398.83 353.09, 399.00 351.62, 399.51 348.30 C 400.01 344.97, 400.00 342.31, 400.77 337.85 C 401.53 333.39, 402.29 330.46, 403.32 326.01 C 404.34 321.56, 405.43 319.12, 405.90 315.59 C 406.36 312.07, 406.41 310.35, 405.64 308.39 C 404.87 306.44, 403.74 305.71, 402.06 305.83 C 400.38 305.95, 399.12 306.65, 397.25 308.99 C 395.37 311.33, 394.97 313.67, 392.68 317.53 C 390.39 321.40, 388.87 323.93, 385.79 328.31 C 382.70 332.68, 380.75 335.36, 377.26 339.40 C 373.77 343.43, 371.81 345.57, 368.32 348.47 C 364.83 351.37, 362.81 352.48, 359.80 353.90 C 356.80 355.33, 355.43 355.53, 353.29 355.61 C 351.15 355.69, 350.51 355.70, 349.09 354.32 C 347.68 352.95, 346.98 351.87, 346.22 348.76 C 345.47 345.64, 345.20 343.16, 345.32 338.75 C 345.44 334.33, 346.10 331.29, 346.83 326.68 C 347.55 322.06, 348.68 319.28, 348.96 315.67 C 349.25 312.05, 349.20 310.24, 348.24 308.60 C 347.28 306.96, 345.93 306.55, 344.18 307.47 C 342.43 308.39, 341.49 310.01, 339.48 313.22 C 337.47 316.43, 336.58 319.32, 334.13 323.52 C 331.69 327.72, 330.10 330.38, 327.27 334.22 C 324.44 338.06, 322.78 340.03, 320.00 342.72 C 317.22 345.41, 315.53 346.19, 313.38 347.66 C 311.24 349.13, 310.58 349.55, 309.28 350.08 C 307.98 350.61, 307.61 350.64, 306.89 350.31 C 306.16 349.98, 305.96 349.63, 305.67 348.43 C 305.39 347.23, 305.38 346.37, 305.47 344.30 C 305.57 342.23, 305.80 340.83, 306.14 338.08 C 306.48 335.33, 306.74 333.61, 307.18 330.56 C 307.63 327.50, 308.23 325.89, 308.35 322.80 C 308.46 319.71, 308.53 317.99, 307.75 315.11 C 306.97 312.23, 306.37 310.65, 304.44 308.40 C 302.50 306.14, 301.24 304.90, 298.07 303.84 C 294.89 302.78, 292.91 302.79, 288.55 303.10 C 284.20 303.41, 281.74 303.90, 276.28 305.40 C 270.82 306.89, 267.70 307.91, 261.25 310.57 C 254.80 313.23, 251.09 314.87, 244.04 318.70 C 236.99 322.52, 233.00 324.86, 226.00 329.69 C 219.01 334.51, 215.31 337.36, 209.05 342.81 C 202.79 348.27, 199.63 351.44, 194.72 356.94 C 189.80 362.45, 187.47 365.35, 184.45 370.35 C 181.44 375.35, 180.27 377.70, 179.65 381.93 C 179.03 386.17, 179.34 388.66, 181.36 391.55 C 183.37 394.43, 185.51 395.36, 189.71 396.35 C 193.92 397.35, 196.66 397.15, 202.39 396.51 C 208.12 395.87, 211.68 395.11, 218.36 393.17 C 225.04 391.23, 228.96 389.79, 235.78 386.83 C 242.60 383.87, 246.38 381.97, 252.45 378.38 C 258.51 374.79, 261.63 372.79, 266.12 368.88 C 270.60 364.96, 272.61 362.95, 274.86 358.81 C 277.12 354.67, 277.74 352.35, 277.38 348.18 C 277.02 344.01, 275.85 341.87, 273.08 337.97 C 270.31 334.07, 268.01 332.33, 263.53 328.69 C 259.05 325.05, 256.08 323.36, 250.68 319.79 C 245.28 316.22, 241.99 314.50, 236.52 310.86 C 231.06 307.21, 227.95 305.41, 223.36 301.57 C 218.77 297.72, 216.54 295.72, 213.57 291.64 C 210.61 287.56, 209.53 285.47, 208.55 281.17 C 207.56 276.88, 207.62 274.62, 208.64 270.17 C 209.67 265.73, 210.93 263.20, 213.69 258.97 C 216.45 254.73, 218.56 252.50, 222.44 249.00 C 226.31 245.50, 228.80 243.88, 233.06 241.47 C 237.31 239.06, 239.64 238.16, 243.73 236.94 C 247.82 235.73, 250.13 235.76, 253.52 235.40 C 256.91 235.04, 258.30 235.49, 260.66 235.14 C 263.01 234.80, 264.33 234.61, 265.31 233.68 C 266.29 232.76, 266.49 231.58, 265.56 230.50" style="stroke: black; fill: black;"/><path d="M 778.01,227.61 C 776.90 228.27, 776.06 228.84, 775.01 231.81 C 773.96 234.78, 773.96 236.88, 772.76 242.47 C 771.57 248.06, 770.78 251.77, 769.05 259.76 C 767.33 267.75, 766.24 272.85, 764.15 282.42 C 762.06 291.98, 760.77 297.78, 758.61 307.59 C 756.45 317.40, 755.22 322.77, 753.35 331.46 C 751.49 340.16, 750.54 344.50, 749.29 351.07 C 748.03 357.64, 747.15 360.51, 747.07 364.33 C 747.00 368.14, 747.66 369.54, 748.90 370.17 C 750.14 370.79, 751.92 370.39, 753.27 367.45 C 754.62 364.50, 754.56 361.71, 755.66 355.43 C 756.76 349.15, 757.35 344.79, 758.76 336.05 C 760.17 327.31, 761.02 321.70, 762.72 311.72 C 764.42 301.75, 765.42 295.92, 767.26 286.18 C 769.09 276.43, 770.10 271.31, 771.90 262.98 C 773.69 254.65, 774.67 250.40, 776.23 244.52 C 777.78 238.64, 779.15 236.24, 779.68 233.58 C 780.21 230.92, 779.08 230.37, 778.88 231.23 C 778.68 232.10, 778.42 233.49, 778.68 237.91 C 778.94 242.33, 779.49 245.87, 780.18 253.32 C 780.87 260.78, 781.20 265.85, 782.13 275.19 C 783.06 284.53, 783.53 290.27, 784.86 300.01 C 786.19 309.75, 786.95 315.20, 788.77 323.88 C 790.59 332.57, 791.67 336.79, 793.97 343.43 C 796.26 350.06, 797.50 352.86, 800.24 357.04 C 802.99 361.23, 804.45 363.03, 807.71 364.34 C 810.96 365.66, 813.45 365.49, 816.51 363.63 C 819.57 361.77, 820.68 359.84, 822.99 355.05 C 825.31 350.27, 826.09 347.08, 828.07 339.71 C 830.04 332.33, 831.01 327.50, 832.86 318.19 C 834.71 308.88, 835.67 303.14, 837.31 293.17 C 838.96 283.20, 839.77 277.51, 841.09 268.33 C 842.42 259.16, 843.07 254.35, 843.95 247.29 C 844.84 240.24, 845.19 237.43, 845.51 233.07 C 845.83 228.72, 845.90 227.54, 845.54 225.52 C 845.18 223.50, 844.30 223.45, 843.70 222.97 C 843.09 222.49, 842.73 223.01, 842.51 223.13 C 842.30 223.26, 842.68 223.51, 842.63 223.59 C 842.58 223.67, 842.49 223.11, 842.26 223.55 C 842.02 223.99, 841.56 223.92, 841.45 225.79 C 841.34 227.66, 841.77 228.66, 841.70 232.90 C 841.63 237.14, 841.70 239.97, 841.09 246.99 C 840.47 254.01, 839.87 258.83, 838.63 267.99 C 837.39 277.14, 836.59 282.84, 834.89 292.76 C 833.20 302.69, 832.19 308.43, 830.17 317.63 C 828.16 326.83, 827.01 331.67, 824.81 338.77 C 822.62 345.87, 821.39 348.98, 819.20 353.15 C 817.02 357.32, 815.84 358.19, 813.88 359.61 C 811.93 361.02, 811.55 361.14, 809.42 360.22 C 807.28 359.30, 805.76 358.57, 803.21 355.01 C 800.66 351.46, 799.07 348.78, 796.68 342.44 C 794.29 336.11, 793.12 331.91, 791.26 323.35 C 789.39 314.80, 788.61 309.36, 787.35 299.68 C 786.10 289.99, 785.68 284.26, 784.99 274.94 C 784.29 265.62, 784.24 260.56, 783.88 253.07 C 783.52 245.57, 783.86 242.03, 783.18 237.44 C 782.51 232.86, 782.00 231.20, 780.52 230.14 C 779.04 229.08, 777.26 229.40, 775.78 232.12 C 774.29 234.85, 774.37 237.71, 773.09 243.78 C 771.82 249.85, 771.03 254.08, 769.39 262.47 C 767.76 270.86, 766.75 275.97, 764.92 285.74 C 763.09 295.50, 762.07 301.33, 760.22 311.28 C 758.37 321.23, 757.40 326.83, 755.68 335.50 C 753.96 344.16, 753.06 348.50, 751.62 354.61 C 750.18 360.72, 748.86 363.06, 748.48 366.05 C 748.09 369.03, 749.18 369.81, 749.70 369.53 C 750.22 369.25, 750.58 368.24, 751.09 364.65 C 751.61 361.05, 751.32 358.11, 752.27 351.57 C 753.21 345.04, 754.08 340.67, 755.82 331.97 C 757.56 323.28, 758.79 317.91, 760.97 308.11 C 763.15 298.32, 764.47 292.52, 766.72 283.00 C 768.98 273.48, 770.17 268.41, 772.23 260.52 C 774.29 252.63, 775.37 248.98, 777.01 243.56 C 778.65 238.14, 779.70 236.41, 780.42 233.40 C 781.13 230.39, 781.05 229.66, 780.57 228.50 C 780.09 227.34, 779.13 226.95, 778.01 227.61" style="stroke: black; fill: black;"/><path d="M 855.71,343.33 C 856.93 343.69, 858.17 344.00, 860.38 342.71 C 862.59 341.41, 863.84 340.00, 866.78 336.85 C 869.73 333.70, 871.63 331.49, 875.09 326.95 C 878.54 322.41, 880.71 319.43, 884.05 314.15 C 887.40 308.87, 889.25 305.63, 891.81 300.54 C 894.37 295.44, 895.53 292.87, 896.85 288.68 C 898.18 284.49, 898.86 282.47, 898.43 279.57 C 898.01 276.67, 896.90 275.22, 894.73 274.17 C 892.55 273.12, 890.43 272.69, 887.55 274.32 C 884.67 275.95, 883.32 278.02, 880.32 282.31 C 877.33 286.60, 875.55 289.58, 872.56 295.79 C 869.58 301.99, 867.77 306.06, 865.39 313.33 C 863.02 320.61, 861.81 325.08, 860.69 332.15 C 859.57 339.21, 859.23 343.02, 859.80 348.65 C 860.36 354.28, 860.99 356.93, 863.52 360.30 C 866.06 363.67, 868.34 364.96, 872.47 365.51 C 876.61 366.05, 879.23 365.21, 884.21 363.04 C 889.19 360.87, 891.96 358.88, 897.36 354.63 C 902.77 350.39, 905.87 347.41, 911.25 341.83 C 916.64 336.25, 919.48 332.62, 924.28 326.74 C 929.09 320.87, 931.53 317.39, 935.28 312.46 C 939.03 307.53, 941.24 305.10, 943.05 302.08 C 944.86 299.06, 944.69 297.67, 944.32 297.38 C 943.95 297.09, 942.49 297.69, 941.19 300.65 C 939.89 303.61, 939.39 306.66, 937.81 312.18 C 936.23 317.69, 934.97 321.78, 933.28 328.24 C 931.60 334.71, 930.51 338.70, 929.38 344.49 C 928.24 350.29, 927.38 353.09, 927.61 357.23 C 927.84 361.37, 928.45 363.24, 930.52 365.19 C 932.60 367.13, 934.80 367.71, 937.98 366.96 C 941.16 366.22, 942.92 364.38, 946.42 361.45 C 949.92 358.52, 951.83 356.36, 955.49 352.31 C 959.14 348.27, 961.28 345.23, 964.69 341.22 C 968.09 337.20, 970.30 334.91, 972.52 332.24 C 974.74 329.56, 975.30 328.43, 975.80 327.84 C 976.30 327.26, 975.34 327.51, 975.00 329.30 C 974.66 331.10, 974.27 333.14, 974.11 336.80 C 973.95 340.46, 973.81 343.40, 974.21 347.59 C 974.62 351.78, 974.67 354.27, 976.14 357.75 C 977.61 361.24, 978.73 363.13, 981.58 365.02 C 984.43 366.91, 986.62 367.46, 990.40 367.21 C 994.19 366.95, 996.33 366.08, 1000.50 363.75 C 1004.67 361.41, 1007.02 359.63, 1011.25 355.53 C 1015.47 351.43, 1017.82 348.59, 1021.64 343.25 C 1025.45 337.91, 1027.40 334.58, 1030.32 328.82 C 1033.23 323.06, 1034.57 319.74, 1036.22 314.44 C 1037.87 309.14, 1038.47 306.55, 1038.55 302.32 C 1038.64 298.10, 1038.24 296.06, 1036.65 293.32 C 1035.05 290.58, 1033.28 289.60, 1030.58 288.61 C 1027.88 287.62, 1025.95 287.62, 1023.14 288.35 C 1020.34 289.08, 1018.56 290.07, 1016.55 292.26 C 1014.54 294.45, 1013.56 296.30, 1013.10 299.30 C 1012.64 302.31, 1012.77 304.45, 1014.24 307.30 C 1015.72 310.15, 1017.18 311.75, 1020.46 313.54 C 1023.74 315.33, 1025.97 315.72, 1030.64 316.25 C 1035.32 316.78, 1038.14 316.69, 1043.84 316.20 C 1049.54 315.72, 1052.97 315.07, 1059.13 313.83 C 1065.29 312.58, 1068.70 311.54, 1074.64 309.97 C 1080.57 308.40, 1083.67 307.41, 1088.81 306.00 C 1093.95 304.59, 1096.57 304.04, 1100.32 302.91 C 1104.06 301.79, 1105.79 301.56, 1107.53 300.36 C 1109.27 299.15, 1109.46 298.05, 1109.01 296.89 C 1108.57 295.73, 1107.59 294.61, 1105.30 294.57 C 1103.00 294.53, 1101.24 295.10, 1097.54 296.70 C 1093.84 298.30, 1091.49 299.62, 1086.79 302.56 C 1082.09 305.51, 1079.16 307.33, 1074.03 311.42 C 1068.89 315.52, 1065.83 318.12, 1061.11 323.04 C 1056.39 327.96, 1053.92 330.98, 1050.43 336.02 C 1046.94 341.06, 1045.39 343.77, 1043.66 348.24 C 1041.92 352.70, 1041.16 354.98, 1041.76 358.33 C 1042.35 361.69, 1043.84 363.57, 1046.64 365.02 C 1049.45 366.47, 1051.76 366.60, 1055.79 365.60 C 1059.81 364.61, 1062.14 363.13, 1066.76 360.04 C 1071.38 356.95, 1073.98 354.71, 1078.88 350.15 C 1083.78 345.59, 1086.58 342.61, 1091.27 337.24 C 1095.97 331.87, 1098.61 328.33, 1102.36 323.32 C 1106.12 318.30, 1108.26 315.63, 1110.04 312.18 C 1111.83 308.73, 1111.90 307.01, 1111.28 306.08 C 1110.66 305.15, 1108.59 305.18, 1106.94 307.55 C 1105.29 309.92, 1104.57 312.88, 1103.04 317.95 C 1101.52 323.03, 1100.30 326.78, 1099.30 332.93 C 1098.30 339.07, 1097.79 342.78, 1098.06 348.69 C 1098.34 354.59, 1098.66 357.74, 1100.68 362.45 C 1102.69 367.17, 1104.26 369.44, 1108.13 372.28 C 1112.01 375.12, 1114.60 376.01, 1120.05 376.64 C 1125.50 377.27, 1129.37 376.55, 1135.39 375.45 C 1141.42 374.34, 1145.19 372.99, 1150.18 371.10 C 1155.17 369.22, 1158.55 367.61, 1160.32 366.02 C 1162.10 364.44, 1161.34 362.92, 1159.04 363.17 C 1156.74 363.42, 1153.70 365.63, 1148.81 367.26 C 1143.93 368.89, 1140.29 370.25, 1134.62 371.32 C 1128.96 372.39, 1125.30 373.07, 1120.48 372.60 C 1115.66 372.14, 1113.73 371.35, 1110.52 369.01 C 1107.30 366.67, 1106.07 364.99, 1104.39 360.90 C 1102.71 356.81, 1102.24 353.98, 1102.13 348.55 C 1102.03 343.13, 1102.67 339.56, 1103.87 333.77 C 1105.07 327.97, 1106.48 324.40, 1108.12 319.58 C 1109.76 314.75, 1111.62 312.44, 1112.08 309.63 C 1112.53 306.82, 1111.59 305.51, 1110.39 305.53 C 1109.19 305.56, 1108.30 306.64, 1106.07 309.75 C 1103.84 312.85, 1102.74 316.04, 1099.25 321.07 C 1095.75 326.10, 1093.19 329.66, 1088.60 334.90 C 1084.01 340.14, 1081.16 343.04, 1076.30 347.28 C 1071.43 351.53, 1068.66 353.51, 1064.27 356.12 C 1059.89 358.73, 1057.51 359.43, 1054.38 360.34 C 1051.26 361.25, 1050.17 361.20, 1048.66 360.66 C 1047.15 360.12, 1047.01 359.80, 1046.82 357.61 C 1046.63 355.43, 1046.37 353.63, 1047.71 349.73 C 1049.05 345.83, 1050.34 342.96, 1053.54 338.13 C 1056.74 333.29, 1059.14 330.27, 1063.72 325.55 C 1068.30 320.83, 1071.32 318.28, 1076.42 314.54 C 1081.51 310.80, 1084.47 309.17, 1089.19 306.85 C 1093.90 304.53, 1096.46 304.21, 1100.01 302.95 C 1103.56 301.69, 1105.20 301.70, 1106.94 300.56 C 1108.68 299.42, 1108.92 298.19, 1108.71 297.24 C 1108.49 296.29, 1107.86 295.64, 1105.87 295.80 C 1103.88 295.96, 1102.40 296.78, 1098.75 298.03 C 1095.10 299.28, 1092.64 300.40, 1087.62 302.05 C 1082.60 303.70, 1079.50 304.70, 1073.65 306.28 C 1067.80 307.86, 1064.40 308.85, 1058.38 309.94 C 1052.37 311.03, 1048.95 311.54, 1043.57 311.74 C 1038.18 311.94, 1035.42 311.73, 1031.45 310.94 C 1027.49 310.16, 1025.96 309.16, 1023.73 307.81 C 1021.50 306.46, 1021.04 305.63, 1020.31 304.19 C 1019.58 302.75, 1019.73 301.99, 1020.09 300.62 C 1020.46 299.26, 1021.07 298.52, 1022.13 297.36 C 1023.18 296.20, 1023.99 295.54, 1025.36 294.84 C 1026.73 294.15, 1027.65 293.65, 1028.98 293.88 C 1030.32 294.11, 1031.07 294.30, 1032.04 295.99 C 1033.01 297.68, 1033.78 298.84, 1033.85 302.31 C 1033.91 305.78, 1033.75 308.35, 1032.38 313.32 C 1031.01 318.28, 1029.76 321.61, 1026.99 327.15 C 1024.22 332.68, 1022.27 335.95, 1018.53 340.99 C 1014.79 346.03, 1012.37 348.71, 1008.29 352.36 C 1004.20 356.01, 1001.77 357.42, 998.11 359.23 C 994.45 361.05, 992.64 361.23, 990.00 361.42 C 987.36 361.61, 986.50 361.35, 984.91 360.18 C 983.33 359.01, 982.83 358.21, 982.09 355.59 C 981.34 352.97, 981.34 350.86, 981.18 347.09 C 981.01 343.32, 981.49 340.49, 981.25 336.72 C 981.01 332.96, 981.20 330.63, 979.98 328.25 C 978.75 325.86, 977.42 324.76, 975.12 324.80 C 972.83 324.83, 971.35 325.77, 968.51 328.42 C 965.66 331.07, 964.24 333.97, 960.90 338.06 C 957.55 342.16, 955.39 345.07, 951.78 348.89 C 948.17 352.70, 945.99 354.58, 942.86 357.14 C 939.72 359.70, 938.02 360.60, 936.10 361.66 C 934.18 362.73, 934.02 363.38, 933.25 362.47 C 932.48 361.56, 932.22 360.55, 932.26 357.11 C 932.30 353.67, 932.42 350.82, 933.45 345.27 C 934.49 339.73, 935.64 335.72, 937.45 329.38 C 939.26 323.05, 940.74 319.08, 942.50 313.60 C 944.26 308.13, 945.85 305.43, 946.26 302.01 C 946.66 298.58, 945.89 296.99, 944.53 296.48 C 943.17 295.96, 941.88 296.67, 939.45 299.44 C 937.02 302.21, 935.89 305.27, 932.36 310.33 C 928.83 315.40, 926.50 318.90, 921.81 324.74 C 917.12 330.59, 914.26 334.16, 908.92 339.56 C 903.59 344.95, 900.41 347.79, 895.14 351.72 C 889.86 355.65, 887.00 357.33, 882.56 359.23 C 878.12 361.12, 876.11 361.48, 872.96 361.21 C 869.80 360.93, 868.69 360.46, 866.78 357.87 C 864.87 355.28, 863.97 353.31, 863.41 348.27 C 862.86 343.23, 862.95 339.43, 864.00 332.66 C 865.04 325.89, 866.20 321.43, 868.62 314.42 C 871.04 307.40, 872.95 303.40, 876.10 297.59 C 879.25 291.78, 881.36 289.00, 884.37 285.38 C 887.37 281.76, 889.33 281.12, 891.13 279.50 C 892.94 277.88, 892.98 277.23, 893.41 277.29 C 893.83 277.35, 893.50 277.77, 893.27 279.77 C 893.04 281.78, 893.30 283.53, 892.26 287.32 C 891.22 291.10, 890.41 293.79, 888.06 298.70 C 885.72 303.62, 883.89 306.84, 880.55 311.88 C 877.20 316.92, 874.96 319.77, 871.35 323.90 C 867.74 328.03, 865.49 329.80, 862.50 332.54 C 859.52 335.27, 858.06 335.90, 856.42 337.57 C 854.78 339.25, 854.44 339.76, 854.30 340.91 C 854.16 342.06, 854.50 342.97, 855.71 343.33" style="stroke: black; fill: black;"/></g></svg>