<?xml version="1.0" encoding="UTF-8"?>
<svg id="Layer_1" xmlns="http://www.w3.org/2000/svg" version="1.1" viewBox="0 0 89 89">
  <!-- Generator: Adobe Illustrator 29.7.1, SVG Export Plug-In . SVG Version: 2.1.1 Build 8)  -->
  <defs>
    <style>
      .st0 {
        fill: #fff;
      }
    </style>
  </defs>
  <path class="st0" d="M89,15.74v-1.69C89,6.32,82.68,0,74.95,0H14.05C6.32-.02,0,6.3,0,14.03v60.92c0,7.73,6.32,14.05,14.05,14.05h60.9c7.73,0,14.05-6.32,14.05-14.05V27.88c0-4.05,0-8.09,0-12.14Z"/>
  <path d="M77.34,31.93h-44.4c-1.32,0-1.92-.87-1.33-1.92l7.38-13.32c.59-1.06,2.14-1.92,3.46-1.92h41.75c1.82,0,3.46.34,4.8.97v-1.69C89,6.32,82.68,0,74.95,0H14.05C6.32-.02,0,6.3,0,14.03v52.33l4.1-7.39c.58-1.06,2.14-1.92,3.46-1.92h41.75c6.02,0,10.09,3.68,7.52,9.28-3.05,6.65-10.02,7.89-14.39,7.89H0v.73c0,7.73,6.32,14.05,14.05,14.05h60.9c7.73,0,14.05-6.32,14.05-14.05V27.88c-3.47,3.31-8.32,4.04-11.66,4.04h0ZM74.28,45.18c-3.05,6.65-10.02,7.89-14.39,7.89H15.49c-1.32,0-1.92-.87-1.33-1.92l7.38-13.32c.59-1.06,2.14-1.92,3.46-1.92h41.75c6.02,0,10.09,3.68,7.53,9.28h0Z"/>
</svg>