<?xml version="1.0" encoding="UTF-8"?>
<svg id="Layer_1" xmlns="http://www.w3.org/2000/svg" xmlns:x="ns_extend;" version="1.1" viewBox="0 0 89 89">
  <!-- Generator: Adobe Illustrator 29.7.1, SVG Export Plug-In . SVG Version: 2.1.1 Build 8)  -->
  <defs>
    <style>
      .st0 {
        fill: #fff;
      }
    </style>
  </defs>
  <path d="M44.5,0C19.91,0,0,19.9,0,44.5s19.91,44.5,44.5,44.5,44.5-19.9,44.5-44.5S69.09,0,44.5,0Z"/>
  <path class="st0" d="M48.48,73.79h0c-.1,0-.2,0-.3-.1s-.1-.1-.1-.2v-12.35c0-.1.1-.31.2-.31,6.07-1.43,10.95-6.23,12.34-12.35,0-.1.2-.2.3-.2h12.34c.1,0,.2,0,.2.1.1.1.1.2.1.2-1.59,13.06-11.95,23.47-25.09,25.21h.01ZM73.37,41.13h-12.34c-.1,0-.3-.1-.3-.2-1.79-7.55-8.46-12.86-16.13-12.86-9.16,0-16.63,7.45-16.63,16.64,0,7.76,5.28,14.39,12.84,16.13.1,0,.2.2.2.31v12.35c0,.1,0,.2-.1.2-.07.07-.13.1-.2.1h0c-14.53-1.94-25.49-14.49-25.49-29.09,0-16.23,13.24-29.39,29.47-29.39,14.53-.1,26.98,10.82,28.97,25.31v.1c.1.2-.1.41-.3.41h.01Z"/>
</svg>