<?xml version="1.0" encoding="UTF-8"?>
<svg id="Layer_1" data-name="Layer 1" xmlns="http://www.w3.org/2000/svg" viewBox="0 0 1024 1024">
  <defs>
    <style>
      .cls-1 {
        fill-rule: evenodd;
      }
    </style>
  </defs>
  <g id="row1">
    <path id="nav:4" class="cls-1" d="M512,0C308.23,0,142.47,163.34,142.47,363.87s369.53,654.96,369.53,654.96c0,0,369.53-454.43,369.53-654.96S715.77,0,512,0ZM512,597.55c-134.23,0-242.58-106.73-242.58-238.53s108.35-239.34,242.58-239.34,242.58,106.73,242.58,238.53-108.35,239.34-242.58,239.34Z"/>
  </g>
  <path d="M512,97.01c-144.25,0-261.6,117.36-261.6,261.6,0,16.73,1.65,33.09,4.66,48.96l-.98,1.18c.47.4.93.73,1.4,1.12,23.9,119.78,129.82,210.34,256.53,210.34,144.25,0,261.6-117.36,261.6-261.6s-117.36-261.6-261.6-261.6ZM734.81,266.74c-.35,84.87-76.04,102.96-107.86,106.8,26.52-91.45,18.96-179.23,13.17-218.96,42.09,26.53,75.45,65.69,94.69,112.15ZM617.16,141.76c4.39,22.69,20.97,124.88-11.26,230.69-61.32-16.25-70.02-60.91-81.63-121.7-7.86-41.18-16.75-87.32-45-130.91,10.72-1.46,21.63-2.28,32.73-2.28,37.68,0,73.36,8.71,105.16,24.19ZM457.2,123.93c29.93,42.29,38.94,89.15,46.87,130.69,11.52,60.36,22.49,117.5,95.29,137.44-5.37,14.8-11.76,29.56-19.34,44.11-150.98-73.14-243.62-190.63-263.76-217.95,33.53-46.63,83.28-80.83,140.94-94.29ZM304.3,236.5c28.2,36.88,120.59,146.92,265.67,217.61-5.67,9.46-11.92,18.76-18.75,27.88-39.71-19.72-77.02-22.77-113.16-25.72-50.01-4.08-101.69-8.44-163.71-57.62-2.19-13.03-3.39-26.39-3.39-40.04,0-44.54,12.19-86.27,33.34-122.11ZM281.64,429.59c57.89,39.19,107.03,43.28,154.75,47.18,34.37,2.8,67.03,5.51,101.64,21.73-27.88,32.63-64.28,62.08-111.53,85.43-69-26.28-122.94-83.33-144.86-154.34ZM454.21,592.6c42.9-23.96,76.5-52.92,102.74-84.53,11.02,6.09,32.61,20.31,38.24,40.78,3.34,12.13.31,25.25-8.82,39.01-23.43,7.62-48.41,11.79-74.35,11.79-19.92,0-39.28-2.48-57.8-7.05ZM614.3,576.8c3.41-11.33,3.71-22.53.68-33.5-7.18-25.97-30.91-43.25-45.23-51.61,6.91-9.43,13.22-19.04,18.98-28.8,35.99,16.15,75,29.69,116.88,39.12-23.68,31.88-55.03,57.7-91.3,74.78ZM717.98,483.69c-42.84-9.02-82.64-22.55-119.25-38.83,8.54-16.51,15.61-33.29,21.45-50.05,18.06-1.31,68.63-8.06,102.84-42.93,11.49-11.71,19.88-25.45,25.26-40.98,3.11,15.43,4.77,31.38,4.77,47.71,0,45.77-12.83,88.6-35.07,125.08Z"/>
</svg>