<?xml version="1.0" encoding="UTF-8"?>
<svg id="Layer_1" data-name="Layer 1" xmlns="http://www.w3.org/2000/svg" viewBox="0 0 512 512">
  <defs>
    <style>
      .cls-1 {
        fill: #fff;
      }
    </style>
  </defs>
  <path class="cls-1" d="M191.45,313.33c0,2.34-.8,4.49-2.15,6.19-1.83,2.32-4.67,3.81-7.85,3.81s-6.01-1.49-7.85-3.81c-1.35-1.7-2.15-3.85-2.15-6.19s.8-4.48,2.15-6.19c1.84-2.32,4.67-3.81,7.85-3.81s6.02,1.49,7.85,3.81c1.35,1.71,2.15,3.86,2.15,6.19Z"/>
  <g>
    <path class="cls-1" d="M351.35,184.1c0,2.34-.8,4.49-2.15,6.19-1.83,2.32-4.67,3.81-7.85,3.81s-6.01-1.49-7.85-3.81c-1.35-1.7-2.15-3.85-2.15-6.19s.8-4.49,2.15-6.19c1.84-2.32,4.67-3.81,7.85-3.81s6.02,1.49,7.85,3.81c1.35,1.7,2.15,3.85,2.15,6.19Z"/>
    <path d="M333.5,199.74v.35l.17-.14-.17-.21Z"/>
  </g>
  <line class="cls-1" x1="194.72" y1="302.61" x2="328.96" y2="194.12"/>
  <polygon points="333.67 199.95 333.5 200.09 333.5 199.74 333.67 199.95"/>
  <g>
    <path d="M336.4,95.3L175.6,31.5,0,98.6v385.2l10.8-4.1,164.8-63,160.8,63.8,175.6-67.1V28.2l-175.6,67.1ZM312.69,204.85l-54.59,44.13v-57.2l-58.17-40.26c.73-2.34,1.12-4.84,1.12-7.42,0-11.04-7.2-20.44-17.15-23.74V51.43l144.2,57.94v62.6c-9.95,3.29-17.15,12.68-17.15,23.73,0,3.23.62,6.32,1.74,9.15ZM176.05,134.1c3.18,0,6.02,1.49,7.85,3.81,1.35,1.7,2.15,3.85,2.15,6.19s-.8,4.49-2.15,6.19c-1.83,2.32-4.67,3.81-7.85,3.81s-6.01-1.49-7.85-3.81c-1.35-1.7-2.15-3.85-2.15-6.19s.8-4.49,2.15-6.19c1.84-2.32,4.67-3.81,7.85-3.81ZM183.9,167.84c2.73-.91,5.26-2.27,7.48-4l51.72,35.8v61.46l-53.22,43.02c-1.83-1.23-3.84-2.22-5.98-2.92v-133.36ZM168.2,402.14L15.7,460.69V109.4l152.5-58.46v69.43c-9.95,3.3-17.15,12.69-17.15,23.73s7.2,20.44,17.15,23.73v133.37c-9.95,3.3-17.15,12.69-17.15,23.73s7.2,20.44,17.15,23.73v53.48ZM176.05,334.93c-3.18,0-6.01-1.49-7.85-3.81-1.35-1.7-2.15-3.85-2.15-6.19s.8-4.48,2.15-6.19c1.84-2.32,4.67-3.81,7.85-3.81s6.02,1.49,7.85,3.81c1.35,1.71,2.15,3.86,2.15,6.19s-.8,4.49-2.15,6.19c-1.83,2.32-4.67,3.81-7.85,3.81ZM328.1,460.57l-144.2-57.94v-53.96c9.95-3.3,17.15-12.69,17.15-23.74,0-3.23-.61-6.32-1.74-9.15l122.81-99.26c1.84,1.22,3.84,2.21,5.98,2.91v241.14ZM328.1,211.69v-.35l.17.21-.17.14ZM335.95,205.7c-3.18,0-6.01-1.49-7.85-3.81-1.35-1.7-2.15-3.85-2.15-6.19s.8-4.49,2.15-6.19c1.84-2.32,4.67-3.81,7.85-3.81s6.02,1.49,7.85,3.81c1.35,1.7,2.15,3.85,2.15,6.19s-.8,4.49-2.15,6.19c-1.83,2.32-4.67,3.81-7.85,3.81ZM496.3,402.6l-152.5,58.46v-241.62c9.95-3.3,17.15-12.69,17.15-23.74s-7.2-20.44-17.15-23.74v-62.1l152.5-58.46v351.2Z"/>
    <path class="cls-1" d="M186.05,144.1c0,2.34-.8,4.49-2.15,6.19-1.83,2.32-4.67,3.81-7.85,3.81s-6.01-1.49-7.85-3.81c-1.35-1.7-2.15-3.85-2.15-6.19s.8-4.49,2.15-6.19c1.84-2.32,4.67-3.81,7.85-3.81s6.02,1.49,7.85,3.81c1.35,1.7,2.15,3.85,2.15,6.19Z"/>
  </g>
</svg>