<?xml version="1.0" encoding="UTF-8"?>
<svg id="Layer_1" data-name="Layer 1" xmlns="http://www.w3.org/2000/svg" viewBox="0 0 1024 1024">
  <defs>
    <style>
      .cls-1 {
        fill: #141414;
      }
    </style>
  </defs>
  <path class="cls-1" d="M855.34,130.52c-16.39,90.47-52.93,136.76-85.88,162.42-106.15,82.74-262.85,19.93-313.74,101.43-16.16,25.86-15.24,55.99-11.81,77.7h260.36c-9.52,23.02-30.01,62.49-73.3,97.82-73.97,60.37-162.18,65.92-188.26,66.71,2.94,141.97-53.57,225.22-143.19,251.09-16.77,4.84-38.77,7.82-66.76,4.13v-436.64c0-4.13,11.41-21.62,14.65-26.43,59.98-89.04,207.61-155.68,344.93-182.7,10.63-2.09,21.62-4.03,32.57-5.24.19-1.51-3.9-.77-5.26-.69-12.38.78-29.38,3.29-41.82,5.09-127.01,18.36-253.92,66.96-329.15,138.52-6.43,6.12-11.58,12.79-18.32,18.75-.51-2.03-1.09-3.91-1.28-6-3.44-37.19,14.66-81.46,42.09-113.58,74.99-87.83,135.48-111.89,278.85-116.23,94.02-2.85,200.61,11.45,283.63-24.89,9.52-4.16,16.89-8.53,21.7-11.27Z"/>
</svg>