<?xml version="1.0" encoding="UTF-8"?>
<svg id="Layer_1" data-name="Layer 1" xmlns="http://www.w3.org/2000/svg" viewBox="0 0 1248 1248">
  <defs>
    <style>
      .cls-1 {
        fill-rule: evenodd;
      }

      .cls-2 {
        fill: #fff;
      }
    </style>
  </defs>
  <path class="cls-1" d="M356.61,0C159.66,0,0,159.66,0,356.61v534.79c0,196.95,159.66,356.61,356.61,356.61h534.79c196.95,0,356.61-159.66,356.61-356.61V356.61C1248,159.66,1088.34,0,891.39,0H356.61Z"/>
  <g>
    <path class="cls-2" d="M170.78,880.08c0-20.75,7.06-33.2,29.88-54.79l183.03-181.37c76.37-75.54,95.46-105.84,95.46-151.49,0-53.54-41.09-92.14-98.78-92.14-53.96,0-91.72,27.39-112.89,81.35-10.79,21.58-23.24,32.79-47.73,32.79-29.05,0-46.48-17.85-46.48-44.41,0-7.89,1.25-15.36,3.32-22.41,16.19-64.75,87.99-133.23,204.61-133.23s202.54,70.97,202.54,171.41c0,70.14-33.62,117.46-132.81,214.58l-137.38,135.3v2.07h239.06c28.22,0,45.65,17.43,45.65,43.99s-17.43,43.58-45.65,43.58H221.41c-33.2,0-50.63-18.26-50.63-45.24Z"/>
    <path class="cls-2" d="M726.51,890.04c0-12.45,2.91-21.58,9.13-34.03l232.84-439.94v-2.08h-270.19c-26.56,0-45.65-17.43-45.65-43.99s19.09-43.58,45.65-43.58h314.6c38.18,0,64.33,22.41,64.33,60.18,0,19.51-6.23,36.11-20.75,64.33l-232.84,451.56c-11.62,22.83-24.9,31.13-48.14,31.13-29.88,0-48.97-18.26-48.97-43.58Z"/>
  </g>
</svg>