<?xml version="1.0" encoding="UTF-8"?>
<svg id="Asterisk--Streamline-Sharp-Material" xmlns="http://www.w3.org/2000/svg" version="1.1" viewBox="0 0 24 24">
  <!-- Generator: Adobe Illustrator 29.7.1, SVG Export Plug-In . SVG Version: 2.1.1 Build 8)  -->
  <path d="M22.12,6.62c1.94-3.04,2.38-5.03,1.33-6.07-1.09-1.09-3.2-.57-6.46,1.58-1.63-.97-3.53-1.53-5.55-1.53-5.99,0-10.84,4.85-10.84,10.84,0,2.03.56,3.93,1.53,5.55C-.02,20.25-.54,22.36.55,23.45c.37.37.85.55,1.45.55,1.12,0,2.65-.63,4.61-1.88.28-.18.58-.38.88-.58,1.22.48,2.55.74,3.94.74,5.99,0,10.84-4.85,10.84-10.84,0-1.39-.26-2.72-.74-3.94.21-.3.4-.59.58-.88h.01ZM1.99,22.01c-.02-.34.2-1.35,1.41-3.3.61.67,1.3,1.26,2.06,1.77-1.75,1.11-2.97,1.59-3.47,1.53ZM7.27,19.24c-2.78-1.49-4.68-4.43-4.68-7.8C2.59,6.56,6.56,2.59,11.44,2.59c3.37,0,6.31,1.9,7.81,4.68-1.34,1.82-3.18,4-5.58,6.39-2.4,2.4-4.57,4.24-6.4,5.57h0ZM11.43,20.29c-.67,0-1.32-.07-1.95-.22,1.8-1.41,3.71-3.11,5.59-4.99s3.58-3.79,4.99-5.59c.14.63.22,1.28.22,1.95,0,4.88-3.97,8.85-8.85,8.85ZM18.71,3.4c1.95-1.21,2.96-1.44,3.3-1.41.07.5-.42,1.72-1.53,3.47-.5-.76-1.1-1.45-1.77-2.06Z"/>
</svg>