<?xml version="1.0" encoding="UTF-8"?>
<svg id="Layer_1" xmlns="http://www.w3.org/2000/svg" version="1.1" viewBox="0 0 1024 1024">
  <!-- Generator: Adobe Illustrator 29.7.1, SVG Export Plug-In . SVG Version: 2.1.1 Build 8)  -->
  <defs>
    <style>
      .st0 {
        fill: #fff;
      }

      .st1 {
        fill: #5c0f8b;
      }
    </style>
  </defs>
  <rect class="st0" width="1024" height="1024"/>
  <path class="st1" d="M1024,1024H0V0h1024v1024ZM476.54,904.36c1.17,7.17,16.75,10.65,20.27,0l35.75-283.7h-86.92l30.9,283.7ZM562.96,557.15h-147.78v43.01h147.78v-43.01ZM520.31,536.17c187.35,6.77,200.66-164.04,201.37-227.86.12-3.73-1.75-4.1-2.62-1.44-5.62,13.27-29.94,60.92-97.45,89.76-60.36,25.92-96.65,84.61-102.93,137.43-.2.91.37,1.82,1.29,2.02.13.03.26.04.39.04M499.81,523.73c29.65-142.2,145.35-145.64,155.76-172.6,16.19-42.15-13.35-116.76-20.94-125.6-.67-.94-1.73-.38-2.15.44-15.67,34.42-41.11,67.3-59.61,82.34-26.25,21.15-126.74,95.6-75.34,215.53.15.67.81,1.1,1.49.95.52-.11.91-.54.97-1.07M479.52,529.5c-62.75-134.1,62.76-220.63,83.19-239.4,2.9-2.62,2.17-5.08,2.23-8.13,0-42.21-24.17-110.47-32.11-120.24-1.12-1.48-2.02-.85-2.5.69-10.73,41.59-67.88,103.62-79.36,117.14-97.07,115.14-74.88,185.42,26.29,251.66,1.23.83,2.79-.12,2.06-1.62M451.22,534.21c-104.95-62.61-94.45-152.06-50.92-217.82,1.01-1.93,1.34-4.15.92-6.29-1.81-15.65-18.9-55.21-26.02-65.95-1.83-2.71-3.4-2.5-3.5-.58-.65,17.84-20.94,62.69-52.11,114.29-33.15,54.92-33.19,174.19,131.16,178.83,1.58,0,2.06-1.5.46-2.42"/>
</svg>