<?xml version="1.0" encoding="UTF-8"?>
<svg id="Layer_1" xmlns="http://www.w3.org/2000/svg" version="1.1" viewBox="0 0 1024 1024">
  <!-- Generator: Adobe Illustrator 29.7.1, SVG Export Plug-In . SVG Version: 2.1.1 Build 8)  -->
  <path d="M699.59,147.27c-52.35-5.32-103.62,9.95-146.1,40.17-7.75,5.52-36.03,33.26-38.55,33.75-.9.17-1.88.06-2.92-.26-1.04.32-2.02.43-2.95.26-2.49-.49-30.8-28.23-38.52-33.75-42.51-30.22-93.79-45.49-146.13-40.17-140.09,14.32-215.77,155.88-195.76,286.63,22.44,146.48,191.02,297.04,301.98,386.31,37.68,30.32,75.86,54.46,75.86,54.46,2.39,1.37,4.34,2.46,5.51,3.1,1.17-.65,3.12-1.74,5.51-3.1,0,0,38.18-24.14,75.86-54.46,110.97-89.28,279.57-239.83,301.98-386.31,20.01-130.75-55.64-272.31-195.76-286.63h0ZM738.08,603.4c-5.06,5.64-70.71,73.46-73.75,69.38,4.34-61.72-33.34-124.76-85.95-155.59-22.01-12.9-44.54-18.57-66.37-18.48-21.86-.09-44.39,5.58-66.4,18.48-52.58,30.83-90.26,93.87-85.92,155.59-3.04,4.08-68.71-63.74-73.75-69.38-61.31-68.25-107.87-142.17-99.37-238.24,11.6-131.24,151.71-212.68,259.93-121.87,20.5,17.18,38.81,49.66,65.5,48.12,26.69,1.53,44.97-30.94,65.47-48.12,108.25-90.81,248.37-9.37,259.96,121.87,8.47,96.07-38.06,169.99-99.37,238.24h.02ZM458.84,463.88c-80.47,16.72-108.19-144.32-42.04-157.74,72.93-14.8,107.34,144.18,42.04,157.74ZM719.21,523.81c-22,22.26-64.37,34.25-80.62-.28-24.22-51.46,56.17-134.64,97.03-95.6,23.79,22.73,3.92,75.32-16.41,95.88h0ZM565.18,463.88c-65.3-13.56-30.89-172.54,42.04-157.74,66.14,13.42,38.43,174.46-42.04,157.74ZM385.43,523.53c-16.25,34.53-58.62,22.54-80.62.28-20.33-20.56-40.2-73.15-16.41-95.88,40.85-39.04,121.25,44.14,97.03,95.6Z"/>
</svg>