<?xml version="1.0" encoding="UTF-8"?>
<svg id="Layer_1" data-name="Layer 1" xmlns="http://www.w3.org/2000/svg" viewBox="0 0 1024 1024">
  <defs>
    <style>
      .cls-1 {
        fill: #20213c;
        stroke: #de6c2a;
        stroke-miterlimit: 10;
        stroke-width: 40px;
      }

      .cls-2 {
        fill: #de6c2a;
      }
    </style>
  </defs>
  <path class="cls-1" d="M487.67,13.27c355.01-15.65,613.91,329.99,493.95,667.5-138.74,390.36-668.22,449.08-890.76,100.08C-114.52,458.77,107.82,30.01,487.67,13.27Z"/>
  <g>
    <path class="cls-2" d="M245.62,432.65v-55.54l63.48-63.48h111.09l63.48,63.48v111.09l-23.8,23.8,23.8,23.8v111.09l-63.48,63.48h-111.09l-63.48-63.48v-55.54h79.35v39.67h79.35v-79.35h-39.67v-79.35h39.67v-79.35h-79.35v39.67h-79.35Z"/>
    <path class="cls-2" d="M619.69,710.37v-79.35h39.67v-39.67h-119.02v-79.35l119.02-198.37h79.35v198.37h39.67v79.35h-39.67v39.67h39.67v79.35h-158.7ZM625.35,512h34.01v-56.68l-34.01,56.68Z"/>
  </g>
</svg>