<?xml version="1.0" encoding="UTF-8"?>
<svg id="Capa_1" xmlns="http://www.w3.org/2000/svg" version="1.1" viewBox="0 0 800 800">
  <!-- Generator: Adobe Illustrator 29.7.1, SVG Export Plug-In . SVG Version: 2.1.1 Build 8)  -->
  <path d="M353.14,487.93l-142.33-57c-9.68-4.07-17.02-12.27-20-22.33-2.64-10.07-.42-20.8,6-29l186.47-239.75L170.18,17.64C98.05-23.73,39.58,10.16,39.58,93.28v613.38c0,83.2,58.47,117.05,130.6,75.72l152.7-87.57,30.27-206.88h0Z"/>
  <path d="M706.31,325.1l-229.67-131.71-17.49,120.88,113,56c8.5,4.21,14.81,11.85,17.33,21,2.1,9.4.03,19.24-5.67,27l-136.97,205.45,259.46-148.8c72.15-41.39,72.15-108.44,0-149.81h0Z"/>
</svg>