<?xml version="1.0" encoding="UTF-8"?>
<svg id="Layer_1" data-name="Layer 1" xmlns="http://www.w3.org/2000/svg" viewBox="0 0 1024 1024">
  <path d="M124.57,714.67c-57.55,59.12-30.11,153.45,53.27,164.11l658.32.27c76.33-7.74,117.08-89.15,74.97-155.03-24.83-38.84-100.92-78.34-141.51-103.93-120.48-75.97-252.55-147.15-369.25-226.81-164.35-112.19-72.43-345.48,120.23-328.1,83.78,7.56,168.44,88.1,156.35,176.3-6.03,43.96-69.7,46.42-79.7-2.5-6.65-32.5-6.59-49.35-35.25-72.44-102.24-82.39-236.62,72.04-124.06,154.12,151.31,101.3,322.23,186.28,470.44,290.92,148.49,104.84,131.69,296.25-47.8,344.47-227.98,7.33-457.11,1.17-685.5,3.14-113.88-12.35-186.82-119.32-150.2-230.27,32.79-99.34,158.65-139.23,235.76-197.51,44.66-24.37,85.63,29.97,47.08,64.61-49.48,41.27-139.88,74.21-183.14,118.64Z"/>
</svg>