<?xml version="1.0" encoding="UTF-8"?>
<svg id="Layer_1" xmlns="http://www.w3.org/2000/svg" version="1.1" viewBox="0 0 8000 3200">
  <!-- Generator: Adobe Illustrator 29.7.1, SVG Export Plug-In . SVG Version: 2.1.1 Build 8)  -->
  <defs>
    <style>
      .st0 {
        fill: #0d4c78;
      }

      .st1 {
        fill: #fff;
      }
    </style>
  </defs>
  <path class="st1" d="M1136.3,1326.7c-541.3-176.7-568.3-193-691.3-326.7-84.2-92.2-130.2-212.9-128.7-337.7,0-289.3,235.7-498.3,562.7-498.3,391,0,755.3,230.3,857.3,546.7,26.7,85.7,37.3,101.7,69.7,101.7,21.3,0,42.7-26.7,42.7-64.3,0-16-5.3-53.3-10.7-96.7-59-364-64.3-380-70-444.3,0-75-15.7-107.3-53.3-107.3-8,1.3-15.5,5-21.3,10.7-53.3,43-59,48.3-85.7,48.3-14.7-1.6-29.2-5.2-43-10.7C1280.7,30.1,1232.7,14.1,1029,14.1h0c-568-.1-959.3,331.9-959.3,798.2,0,209,70,380.3,203.7,520,150,155,310.7,241,686,369.3,391,123.3,466,161,546.7,220,139,112.3,219.3,267.7,219.3,433.7,0,337.7-321.3,611-718,611-241,0-492.7-96.7-648.3-252-117.8-117.6-198.1-251.6-267.8-455.3-10.7-26.7-21.7-42.7-43-42.7C21.6,2216.3,0,2243,0,2280.3,0,2323.3,21.7,2446.6,59,2564.3c32.3,112.7,53.7,187.7,53.7,198.3,32.3,160.7,37.7,166,80.3,203.7,112.7,85.7,444.7,166,691.3,166,616,0,1055.3-391,1055.3-937.7.1-401.6-262.3-690.9-803.3-867.9Z"/>
  <path class="st1" d="M3702.7,2194.7c-10.7-391-278.7-675-820-857.3-546.7-182-573.3-192.7-691-326.7-84.1-92.2-130.1-212.9-128.7-337.7,0-294.7,235.7-498.3,562.7-498.3,391,0,750,230.3,857.3,546.7,26.7,85.7,42.7,101.7,69.7,101.7,21.3,0,43-26.7,43-64.3,0-16-5.7-48-11-96.3-59-364.3-64-380.3-69.7-444.7,0-75-16-107.3-53.3-107.3-10.7,0-16.3,5.3-21.7,10.7-53.3,43.3-58.7,48.3-85.7,48.3-10.7,0-21.3-5.3-43-10.7-278.3-123.3-332-134-530.3-134h0c-407.3,0-723.3,166-868,434l32,219.7c5.7,32,5.3,53.3,5.3,64.3,0,85.7-53.3,150-123,166,16,166.3,85.7,311,203.3,428.7,150,155.3,311,241.3,686,370,386,128.3,466.3,160.7,546.7,219.3,139.3,107.3,219.7,268,219.7,434,0,337.7-321.3,611-718,611-241,0-493.3-96.7-648.3-251.7-48.7-48.8-91.8-102.8-128.7-161-32,75-69.7,150-112.7,214.3,32.3,150,37.7,161,80.7,193,112.3,85.7,444.7,166,691,166,611-.1,1055.7-391.1,1055.7-937.7Z"/>
  <path class="st0" d="M7935.7,121h0Z"/>
  <path class="st1" d="M7935.7,121c-26.7,0-59,5.3-107.3,11-53.3,10.7-107,16-198.3,16-128.3,0-342.7-10.7-423.3-16l-96.3-5.3c-42.7,0-64.3,16-64.3,42.7,0,32,16.3,48.3,64.3,59,418,59,455.7,155.3,444.7,1178.7v1050c0,70-5.3,86-26.7,80.7-10.7,0-26.7-16-59-53.3L5454.7,191c-42.7-48.3-69.7-64.3-117.7-64.3-16,0-43,0-75,5.3h-37.7c-10.7,0-107,0-171.3-5.3,26.7,16,53.3,37.3,80,53.3,193.3,144.7,311,391.3,311,659,0,43-5.3,86-10.7,123.3v1393.3l53.3,80c48.3,70,86,128.7,123.3,182.3v-1569.9c0-75,10.7-96.3,43-96.3,21.3,0,26.7,5.3,53.3,32l1848.7,2122q70,80.3,102,80.3c53.3,0,69.7-32.3,69.7-128.7v-42.7c5.3-128.7,5.3-326.7,5.3-605.7V983.7l5.3-139c-5.2-530.7,16.1-584.4,219.8-637.7,32-5.3,43-16.3,43-37.7,0-26.6-26.7-48.3-64.3-48.3Z"/>
  <path class="st1" d="M6060.3,3036c-230.3,5.3-386-123.3-659-541.3l-611-889.3c353.4-182.4,546.7-439.4,546.7-766.4,0-235.7-96.7-444.7-268-573.3-171.3-128.3-391.3-182-734-182-102,0-214.3,5.3-326.7,10.7q-241.3,16-354,16h-42.7c11.8,32.7,17.3,67.3,16,102,5.3,42.7,5.3,64.3,37.3,241l37.7,235.7c3.7,21.2,5.4,42.8,5.3,64.3,1.2,46-16.2,90.4-48.3,123.3v841.3c96.7,139,144.7,300,144.7,482,0,209-59,396.7-160.7,552-26.7,193-96.7,241-273.3,294.7-42.7,10.7-53.3,16-53.3,43,0,32,16,42.7,58.7,42.7,16,0,70-5.3,112.7-10.7,75-10.7,187.7-16,294.7-16,209,0,439.3,5.3,493,16,59,5.3,107,10.7,134,10.7,37.3,0,69.7-16,69.7-42.7s-26.7-43-80.3-48.3c-311-32-412.7-144.7-402-450v-793.4c5.3-74.7,16-85.7,128.7-80h241c96.7,0,123.3,16,171.7,91,16,26.7,26.7,42.7,26.7,48l541,830.7c220,337.7,412.7,466.3,680.7,466.3,160.7,0,310.7-43,310.7-86-.3-16-16.3-32-37.7-32ZM4393.7,1551.7h-246.3c-144.7-5.3-155.3-16-155.3-155.3V507c0-150,0-166.3,26.7-203.7,32.3-43,96.7-69.7,198.3-69.7,203.7,0,423.3,69.7,546.7,182.3,155.2,128.4,246.2,342.8,246.2,546.8,0,364-230.3,589-616.3,589Z"/>
</svg>